<?xml version="1.0" standalone="no"?>
<!DOCTYPE svg PUBLIC "-//W3C//DTD SVG 20010904//EN"
 "http://www.w3.org/TR/2001/REC-SVG-20010904/DTD/svg10.dtd">
<svg version="1.0" xmlns="http://www.w3.org/2000/svg"
 width="1000.000000pt" height="1000.000000pt" viewBox="0 0 1000.000000 1000.000000"
 preserveAspectRatio="xMidYMid meet">
<metadata>
Created by potrace 1.14, written by Peter Selinger 2001-2017
</metadata>
<g transform="translate(0.000000,1000.000000) scale(0.100000,-0.100000)"
fill="#000000" stroke="none">
<path d="M2960 8018 c-99 -50 -110 -154 -46 -408 42 -164 62 -200 109 -200 36
0 53 27 76 120 11 47 32 119 46 160 14 41 29 107 31 145 5 60 2 76 -18 115
-24 46 -88 90 -133 90 -11 0 -41 -10 -65 -22z"/>
<path d="M6877 8015 c-37 -37 -52 -112 -51 -245 2 -129 14 -208 49 -325 62
-205 215 -416 387 -538 75 -52 102 -67 272 -147 146 -68 166 -82 166 -119 0
-73 -199 -303 -374 -433 -185 -138 -447 -246 -684 -284 -47 -7 -82 13 -82 48
0 69 -64 124 -160 135 -72 8 -129 -9 -285 -87 -77 -39 -167 -77 -200 -85 -103
-26 -274 -16 -610 36 -338 52 -578 111 -1286 318 -517 151 -654 194 -849 269
-58 22 -166 59 -240 82 -85 26 -194 71 -295 120 -178 88 -266 119 -409 145
-86 16 -153 17 -649 12 -677 -7 -813 -18 -983 -82 -83 -31 -198 -101 -240
-147 -96 -103 -84 -151 41 -163 33 -4 98 -15 145 -25 86 -19 207 -38 420 -66
63 -9 216 -18 340 -21 220 -5 228 -5 345 22 96 22 145 28 245 28 262 1 394
-72 530 -294 35 -56 77 -118 95 -138 18 -20 80 -99 138 -177 153 -203 300
-335 477 -424 157 -79 590 -230 623 -217 10 4 16 29 19 80 3 51 12 90 29 123
22 44 27 49 58 49 25 0 39 -7 54 -27 l21 -28 -20 -117 c-89 -544 127 -1231
514 -1635 129 -134 243 -229 415 -342 367 -241 604 -337 837 -339 108 -1 150
14 175 63 31 61 13 92 -104 178 -343 251 -412 370 -515 882 -39 194 -67 262
-159 399 -73 109 -163 192 -341 315 -211 147 -270 218 -332 398 -29 85 -30
119 -6 141 48 43 110 -9 161 -135 44 -105 87 -148 275 -272 79 -52 163 -109
188 -128 117 -89 472 -135 848 -109 85 6 247 15 360 21 230 13 290 25 436 86
260 108 507 289 834 610 194 190 240 227 240 192 0 -21 -122 -222 -194 -318
-138 -186 -397 -420 -624 -563 -122 -77 -420 -227 -630 -316 -263 -113 -508
-187 -697 -212 -140 -18 -164 -26 -171 -54 -8 -32 25 -96 57 -112 72 -38 523
64 794 179 147 62 495 235 630 313 195 113 386 258 564 430 139 135 209 219
326 395 144 216 248 429 391 805 74 195 106 257 158 309 53 54 100 70 281 96
398 58 624 154 834 355 182 174 322 420 362 638 21 115 -7 167 -91 167 -41 0
-52 -6 -146 -85 -43 -36 -113 -83 -154 -103 -74 -36 -77 -37 -195 -37 -93 0
-151 6 -258 29 -120 25 -154 28 -255 24 -172 -7 -250 -43 -405 -187 -42 -39
-80 -71 -85 -71 -20 0 -52 35 -88 97 -49 86 -161 199 -239 240 -102 53 -164
67 -305 65 -167 -2 -259 12 -345 53 -82 39 -155 110 -205 198 -18 32 -42 64
-53 72 -34 24 -90 19 -120 -10z m-3608 -1992 c3 -2 -3 -17 -12 -32 -38 -65 -3
-120 68 -107 33 6 35 5 35 -19 0 -60 -58 -105 -136 -105 -42 0 -51 5 -90 44
-38 37 -44 49 -44 85 0 68 38 124 96 140 26 8 72 5 83 -6z"/>
<path d="M2415 7617 c-132 -60 -138 -216 -10 -280 17 -8 62 -24 101 -36 103
-30 141 -63 216 -183 56 -89 69 -103 94 -106 19 -2 37 5 53 19 21 20 23 28 19
84 -10 123 -118 330 -216 415 -92 79 -196 114 -257 87z"/>
<path d="M3467 7606 c-53 -20 -100 -58 -163 -134 -111 -134 -214 -402 -176
-458 4 -6 22 -19 40 -28 52 -27 61 -19 127 126 42 93 133 162 245 188 109 25
164 83 164 172 0 54 -22 92 -72 121 -41 24 -118 31 -165 13z"/>
<path d="M660 6393 c-40 -8 -50 -22 -50 -74 0 -129 171 -484 372 -771 37 -54
68 -102 68 -108 0 -24 -28 -4 -124 93 -206 208 -348 437 -436 706 -49 147 -59
159 -125 147 -44 -9 -75 -37 -75 -70 0 -48 52 -204 106 -316 108 -224 233
-407 388 -568 113 -117 224 -201 358 -271 148 -78 217 -124 358 -242 137 -113
143 -118 335 -237 171 -106 285 -166 387 -204 86 -32 137 -37 308 -28 58 3 72
-1 135 -32 89 -45 490 -196 767 -289 122 -41 373 -88 472 -89 28 0 29 0 24 52
-7 73 -38 98 -148 122 -285 60 -583 145 -750 213 -483 198 -1134 682 -1473
1096 -222 271 -336 463 -441 744 -44 115 -61 131 -122 117 -54 -13 -60 -30
-46 -113 21 -121 214 -493 354 -684 218 -294 596 -663 853 -832 61 -40 126
-87 145 -104 l35 -31 -80 35 c-372 166 -710 429 -966 750 -43 55 -131 172
-194 260 -127 177 -241 391 -294 552 -48 145 -60 170 -84 177 -12 3 -24 5 -27
5 -3 -1 -16 -4 -30 -6z"/>
<path d="M2007 6349 c-10 -6 -22 -22 -27 -35 -13 -33 19 -96 107 -211 37 -49
85 -117 107 -153 112 -185 239 -319 475 -500 209 -161 366 -266 483 -323 244
-120 534 -197 576 -155 16 16 15 80 0 100 -8 11 -88 36 -211 67 -287 72 -461
148 -630 275 -77 58 -124 103 -272 262 -71 76 -138 146 -148 154 -49 41 -252
288 -327 399 -47 69 -92 127 -100 128 -8 2 -23 -2 -33 -8z"/>
<path d="M1312 6328 c-30 -30 -8 -117 71 -275 149 -296 287 -477 581 -761 210
-202 404 -349 704 -534 77 -48 391 -206 472 -238 206 -82 408 -143 549 -166
139 -23 135 -24 128 43 -4 36 -13 63 -25 75 -11 11 -66 31 -133 48 -359 90
-646 211 -974 409 -211 128 -373 255 -618 483 -271 253 -517 597 -591 825 -22
66 -63 103 -115 103 -20 0 -42 -5 -49 -12z"/>
<path d="M1679 6299 c-18 -18 -20 -29 -15 -67 12 -87 170 -342 346 -557 291
-356 781 -697 1281 -893 196 -76 344 -122 401 -125 l43 -2 3 63 c2 35 -2 70
-8 77 -6 7 -38 18 -71 24 -74 15 -260 78 -389 133 -450 190 -852 486 -1174
863 -83 97 -175 235 -246 370 -29 55 -60 108 -68 118 -21 24 -77 22 -103 -4z"/>
<path d="M6160 4583 c-25 -2 -142 -17 -260 -33 -118 -17 -292 -36 -386 -43
-94 -8 -176 -17 -182 -21 -17 -11 -14 -73 4 -102 33 -49 62 -56 194 -44 219
19 314 36 535 98 120 33 133 39 174 80 33 34 41 46 30 52 -22 12 -61 16 -109
13z"/>
<path d="M2553 4263 c-15 -6 -71 -179 -103 -316 -23 -98 -23 -98 -3 -125 29
-39 157 -117 236 -142 95 -32 142 -23 289 51 83 43 128 72 152 101 38 44 99
179 94 206 -2 11 -24 23 -63 35 -210 64 -391 124 -478 158 -55 21 -103 39
-106 38 -3 0 -12 -3 -18 -6z"/>
<path d="M3365 3663 c-86 -11 -143 -34 -306 -126 -85 -48 -151 -68 -239 -74
-107 -7 -180 11 -304 75 -50 25 -122 62 -159 81 -65 33 -72 35 -175 34 -126 0
-186 -19 -321 -101 -124 -76 -179 -94 -296 -100 -124 -5 -187 14 -326 98 -138
83 -196 103 -299 104 -103 1 -150 -14 -284 -90 -54 -30 -122 -65 -150 -76 -61
-24 -66 -30 -66 -88 0 -66 20 -90 76 -90 47 0 88 17 177 74 196 125 298 131
449 29 284 -194 515 -195 828 -4 180 110 229 107 458 -28 89 -53 184 -86 290
-101 155 -23 305 19 488 136 166 106 241 105 426 -7 154 -93 235 -121 359
-127 52 -2 120 1 150 7 59 12 173 62 202 88 22 20 22 66 1 99 -30 45 -47 47
-127 19 -88 -32 -194 -42 -279 -26 -61 12 -187 68 -295 130 -81 46 -199 74
-278 64z"/>
<path d="M6500 3654 c-76 -14 -129 -34 -263 -102 l-147 -76 -126 -6 c-108 -5
-128 -8 -140 -25 -18 -24 -18 -30 2 -71 10 -21 34 -45 61 -61 38 -22 57 -26
117 -26 97 1 168 24 278 90 138 84 188 104 255 105 74 1 124 -13 198 -57 191
-112 299 -148 440 -148 112 0 196 21 294 74 42 22 118 60 169 86 150 74 219
70 366 -21 169 -104 290 -146 426 -146 132 0 250 40 413 138 90 56 139 72 211
72 80 0 129 -17 225 -79 109 -69 156 -91 210 -98 59 -7 88 7 107 53 26 63 1
104 -76 124 -25 6 -93 38 -151 71 -145 81 -205 101 -309 102 -103 2 -125 -5
-310 -98 -80 -40 -169 -80 -199 -89 -143 -42 -311 -3 -491 113 -93 61 -148 76
-265 75 -116 0 -161 -15 -295 -94 -130 -76 -193 -95 -325 -95 -134 0 -183 14
-320 90 -55 31 -122 65 -150 76 -50 19 -158 31 -205 23z"/>
<path d="M3263 3156 c-39 -13 -120 -51 -180 -84 -129 -72 -185 -92 -278 -99
-112 -8 -204 22 -361 117 -106 66 -171 83 -294 78 -123 -5 -176 -23 -295 -98
-127 -81 -170 -94 -305 -94 -134 0 -179 13 -282 80 -141 91 -206 114 -323 114
-126 0 -194 -24 -365 -129 -42 -25 -89 -53 -105 -61 -25 -13 -31 -23 -33 -57
-6 -82 36 -114 116 -87 26 9 99 47 162 84 126 76 186 96 260 87 46 -6 126 -40
180 -77 89 -62 217 -112 329 -129 141 -22 276 12 434 108 119 73 184 94 278
89 79 -5 87 -8 223 -92 125 -76 262 -111 406 -103 123 7 204 34 338 114 200
119 298 123 465 20 157 -97 237 -126 367 -134 148 -8 257 20 381 97 35 23 93
55 129 73 59 29 73 32 155 31 50 0 115 -4 146 -8 38 -6 58 -5 63 2 9 16 -20
82 -52 116 -40 43 -81 56 -175 56 -100 0 -182 -20 -257 -62 -219 -125 -307
-151 -430 -130 -83 14 -146 41 -224 94 -34 23 -90 55 -126 71 -56 26 -79 31
-170 34 -90 3 -115 0 -177 -21z"/>
<path d="M6430 3164 c-64 -16 -194 -80 -296 -146 -80 -51 -97 -82 -69 -124 13
-20 24 -24 70 -24 59 0 112 18 190 63 76 45 170 77 224 77 70 0 124 -20 234
-84 54 -32 135 -72 180 -89 76 -29 92 -31 212 -31 157 -1 232 19 359 98 138
84 171 98 245 104 80 5 125 -7 198 -55 215 -140 409 -188 583 -144 97 24 182
62 284 126 39 24 91 51 115 60 103 36 220 6 369 -94 132 -88 201 -109 249 -76
27 19 40 77 25 110 -7 15 -39 38 -84 61 -40 20 -96 51 -123 69 -144 92 -211
115 -329 115 -103 0 -209 -36 -338 -113 -238 -143 -390 -140 -628 12 -121 77
-177 95 -300 95 -121 0 -170 -15 -299 -92 -110 -65 -167 -88 -253 -103 -135
-23 -260 13 -438 127 -110 69 -252 92 -380 58z"/>
</g>
</svg>
