<svg version="1.1" id="Layer_1" xmlns="http://www.w3.org/2000/svg" xmlns:xlink="http://www.w3.org/1999/xlink" x="0px" y="0px"
	 width="100%" viewBox="0 0 165 165" enable-background="new 0 0 165 165" xml:space="preserve">
<path fill="#FDFDFE" opacity="1.000000" stroke="none" 
	d="
M166.000000,63.000000 
	C166.000000,97.666664 166.000000,131.833328 166.000000,166.000000 
	C111.000000,166.000000 56.000000,166.000000 1.000000,166.000000 
	C1.000000,111.000000 1.000000,56.000000 1.000000,1.000000 
	C56.000000,1.000000 111.000000,1.000000 166.000000,1.000000 
	C166.000000,21.500000 166.000000,42.000000 166.000000,63.000000 
M35.948856,72.412750 
	C36.274483,76.323891 35.140240,78.962669 30.578308,78.871468 
	C25.864813,78.777222 25.900293,75.521835 26.087000,72.226662 
	C26.331331,67.914467 26.715349,63.610363 27.010462,59.300804 
	C27.455183,52.806492 26.627575,52.094624 20.485651,53.712032 
	C18.086876,54.343731 15.735602,55.177727 13.315419,55.700901 
	C9.988096,56.420170 8.117808,58.247364 7.770929,61.714310 
	C7.423643,65.185318 6.887120,68.637650 6.420642,72.096428 
	C4.808648,84.048843 4.806505,84.048546 16.462309,84.014229 
	C22.931105,83.995186 22.836397,84.002663 22.887711,90.867332 
	C22.905699,93.273949 23.037830,97.486870 24.005409,97.762817 
	C27.953934,98.888916 32.313000,99.355644 36.372395,98.856949 
	C37.658878,98.698914 38.747295,94.859566 39.432034,92.557823 
	C39.937069,90.860153 39.643059,88.923790 39.698364,87.093575 
	C39.780853,84.363876 40.402847,82.224533 43.882294,82.446693 
	C46.959286,82.643150 48.961578,83.703217 48.923088,87.184349 
	C48.873562,91.663414 48.995728,96.144585 48.931915,100.623253 
	C48.805553,109.492111 48.774029,109.487366 39.947323,108.987366 
	C37.632881,108.856262 35.394024,108.411720 34.366241,111.603790 
	C30.109909,124.823090 36.982281,132.741470 50.563396,130.083633 
	C51.035294,129.991287 51.491726,129.819916 52.297432,129.586121 
	C52.548054,126.681229 52.931942,123.732422 53.030247,120.774132 
	C53.223949,114.945297 53.859055,114.371498 59.880138,114.653450 
	C65.527786,114.917923 71.182922,115.211258 76.833046,115.180153 
	C82.300423,115.150047 84.044518,113.489059 84.196503,108.074730 
	C84.397072,100.929420 84.423203,93.768669 84.195663,86.625031 
	C83.991920,80.228386 81.583679,78.075546 75.203331,78.007256 
	C69.209793,77.943092 63.211098,77.866417 57.222313,78.047699 
	C53.908970,78.147995 52.673546,76.651726 52.765003,73.607948 
	C52.809872,72.114838 52.888241,70.620193 53.023952,69.132858 
	C53.346825,65.594345 51.921364,63.752041 48.209446,63.940929 
	C46.548306,64.025459 44.877743,63.916500 43.215466,63.988277 
	C37.237049,64.246399 36.281456,65.257202 35.948856,72.412750 
M133.084015,29.505766 
	C132.146896,21.347252 130.952896,20.261600 122.896584,19.876570 
	C117.412025,19.614450 111.899063,19.474052 106.474716,18.727608 
	C104.952110,18.518080 102.747910,16.529276 102.480545,15.060891 
	C101.104378,7.502682 101.289337,7.479144 93.732269,7.742573 
	C91.568642,7.817995 89.402435,7.834628 87.237236,7.846437 
	C83.756866,7.865421 82.039680,9.660391 81.991447,13.076787 
	C81.902916,19.346710 82.365456,20.587132 74.050026,21.509701 
	C66.305283,22.368952 64.992897,23.959696 65.072105,31.925875 
	C65.089890,33.714512 65.968414,36.996281 66.615044,37.037918 
	C71.513641,37.353325 76.575668,37.593231 81.303291,36.559944 
	C82.673584,36.260456 83.168427,31.757656 83.976204,29.154331 
	C84.484261,27.516935 84.580811,24.517603 85.287094,24.384457 
	C88.797844,23.722641 92.616920,23.131697 95.971664,23.958775 
	C97.360329,24.301136 98.440071,28.195328 98.643852,30.561731 
	C99.055855,35.345951 98.700836,40.191513 98.802170,45.008831 
	C98.872299,48.342804 100.670532,50.365372 104.064049,50.414787 
	C112.200752,50.533268 120.339920,50.470257 128.477615,50.537529 
	C132.408798,50.570030 133.766861,48.233360 133.712830,44.815884 
	C133.636719,40.002205 133.339111,35.192032 133.084015,29.505766 
M85.938087,62.222866 
	C86.622749,63.937450 87.806999,65.625999 87.897949,67.371521 
	C88.165649,72.509682 88.024597,77.670586 87.995117,82.822304 
	C87.974709,86.389313 89.016556,89.221870 93.138275,89.259804 
	C100.700424,89.329407 108.287376,89.469101 115.811340,88.892509 
	C117.592995,88.755966 120.539047,85.948425 120.600510,84.282860 
	C120.886360,76.536507 120.490341,68.749557 119.941338,61.005276 
	C119.863380,59.905689 117.694160,58.234035 116.343727,58.072311 
	C111.090820,57.443241 105.781013,57.138855 100.486412,57.042828 
	C92.049255,56.889812 92.047882,57.001057 91.996078,48.730858 
	C91.989838,47.734009 92.107933,46.710121 91.915947,45.749203 
	C91.768661,45.012020 91.219643,43.749603 90.856117,43.752010 
	C85.453667,43.787827 79.810829,43.163746 74.784248,44.622860 
	C73.068649,45.120865 71.793732,51.112797 72.252167,54.317772 
	C73.287331,61.554783 71.993683,61.997925 80.562111,62.038750 
	C82.057663,62.045876 83.553085,62.081009 85.938087,62.222866 
M29.684021,47.037956 
	C33.982071,46.724640 38.279297,46.399391 42.578445,46.101948 
	C45.754688,45.882187 47.118649,46.759331 46.331898,50.462975 
	C45.709530,53.392776 45.555866,57.159302 49.860085,57.932236 
	C60.579639,59.857212 64.123741,56.547165 64.131668,45.816963 
	C64.136360,39.463753 59.497234,40.218475 55.218987,39.593410 
	C55.631702,35.103924 55.690800,30.806261 56.487568,26.650011 
	C57.684109,20.408401 59.091404,19.386211 66.090424,19.113911 
	C74.207512,18.798111 74.915298,15.194600 74.692947,8.136125 
	C74.500992,2.042222 69.278191,5.750273 66.135849,5.853458 
	C64.327248,5.912847 62.406414,5.971725 60.763733,6.613483 
	C59.386749,7.151439 57.468410,8.400259 57.289421,9.564819 
	C56.201260,16.644747 51.222404,18.029333 45.272175,19.156076 
	C31.855482,21.696684 24.468319,34.432835 29.684021,47.037956 
M131.523621,77.091858 
	C134.630798,77.181946 137.779327,77.592888 140.824371,77.200630 
	C142.004807,77.048569 143.730896,75.170700 143.876465,73.923561 
	C144.756805,66.381439 144.627823,66.367798 152.423096,66.660988 
	C153.253067,66.692207 154.084351,66.715927 154.914642,66.707184 
	C162.461105,66.627731 163.403183,65.617767 162.996719,58.066380 
	C162.370712,46.435711 161.434784,44.354420 152.744446,43.265450 
	C141.344589,41.836956 138.434830,40.208858 140.680130,54.076107 
	C141.478149,59.004887 140.960785,62.745369 133.559433,62.064735 
	C132.183578,61.938213 129.447083,63.003876 129.463760,63.437637 
	C129.635010,67.892693 130.244476,72.330902 131.523621,77.091858 
M49.795013,137.869919 
	C48.017075,137.869919 46.239140,137.869919 44.471066,137.869919 
	C43.271503,150.937332 45.832912,151.872177 57.902424,151.132065 
	C58.912506,139.250916 58.473591,138.450180 49.795013,137.869919 
M139.149979,34.834476 
	C142.090424,34.977669 145.030884,35.120861 147.973495,35.264160 
	C148.287720,24.001478 146.998718,22.819880 135.819733,24.698702 
	C136.712738,27.954107 137.586609,31.139784 139.149979,34.834476 
z"/>
<path fill="#122436" opacity="1.000000" stroke="none" 
	d="
M35.948242,71.979805 
	C36.281456,65.257202 37.237049,64.246399 43.215466,63.988277 
	C44.877743,63.916500 46.548306,64.025459 48.209446,63.940929 
	C51.921364,63.752041 53.346825,65.594345 53.023952,69.132858 
	C52.888241,70.620193 52.809872,72.114838 52.765003,73.607948 
	C52.673546,76.651726 53.908970,78.147995 57.222313,78.047699 
	C63.211098,77.866417 69.209793,77.943092 75.203331,78.007256 
	C81.583679,78.075546 83.991920,80.228386 84.195663,86.625031 
	C84.423203,93.768669 84.397072,100.929420 84.196503,108.074730 
	C84.044518,113.489059 82.300423,115.150047 76.833046,115.180153 
	C71.182922,115.211258 65.527786,114.917923 59.880138,114.653450 
	C53.859055,114.371498 53.223949,114.945297 53.030247,120.774132 
	C52.931942,123.732422 52.548054,126.681229 52.297432,129.586121 
	C51.491726,129.819916 51.035294,129.991287 50.563396,130.083633 
	C36.982281,132.741470 30.109909,124.823090 34.366241,111.603790 
	C35.394024,108.411720 37.632881,108.856262 39.947323,108.987366 
	C48.774029,109.487366 48.805553,109.492111 48.931915,100.623253 
	C48.995728,96.144585 48.873562,91.663414 48.923088,87.184349 
	C48.961578,83.703217 46.959286,82.643150 43.882294,82.446693 
	C40.402847,82.224533 39.780853,84.363876 39.698364,87.093575 
	C39.643059,88.923790 39.937069,90.860153 39.432034,92.557823 
	C38.747295,94.859566 37.658878,98.698914 36.372395,98.856949 
	C32.313000,99.355644 27.953934,98.888916 24.005409,97.762817 
	C23.037830,97.486870 22.905699,93.273949 22.887711,90.867332 
	C22.836397,84.002663 22.931105,83.995186 16.462309,84.014229 
	C4.806505,84.048546 4.808648,84.048843 6.420642,72.096428 
	C6.887120,68.637650 7.423643,65.185318 7.770929,61.714310 
	C8.117808,58.247364 9.988096,56.420170 13.315419,55.700901 
	C15.735602,55.177727 18.086876,54.343731 20.485651,53.712032 
	C26.627575,52.094624 27.455183,52.806492 27.010462,59.300804 
	C26.715349,63.610363 26.331331,67.914467 26.087000,72.226662 
	C25.900293,75.521835 25.864813,78.777222 30.578308,78.871468 
	C35.140240,78.962669 36.274483,76.323891 35.948242,71.979805 
z"/>
<path fill="#132536" opacity="1.000000" stroke="none" 
	d="
M133.110107,29.943062 
	C133.339111,35.192032 133.636719,40.002205 133.712830,44.815884 
	C133.766861,48.233360 132.408798,50.570030 128.477615,50.537529 
	C120.339920,50.470257 112.200752,50.533268 104.064049,50.414787 
	C100.670532,50.365372 98.872299,48.342804 98.802170,45.008831 
	C98.700836,40.191513 99.055855,35.345951 98.643852,30.561731 
	C98.440071,28.195328 97.360329,24.301136 95.971664,23.958775 
	C92.616920,23.131697 88.797844,23.722641 85.287094,24.384457 
	C84.580811,24.517603 84.484261,27.516935 83.976204,29.154331 
	C83.168427,31.757656 82.673584,36.260456 81.303291,36.559944 
	C76.575668,37.593231 71.513641,37.353325 66.615044,37.037918 
	C65.968414,36.996281 65.089890,33.714512 65.072105,31.925875 
	C64.992897,23.959696 66.305283,22.368952 74.050026,21.509701 
	C82.365456,20.587132 81.902916,19.346710 81.991447,13.076787 
	C82.039680,9.660391 83.756866,7.865421 87.237236,7.846437 
	C89.402435,7.834628 91.568642,7.817995 93.732269,7.742573 
	C101.289337,7.479144 101.104378,7.502682 102.480545,15.060891 
	C102.747910,16.529276 104.952110,18.518080 106.474716,18.727608 
	C111.899063,19.474052 117.412025,19.614450 122.896584,19.876570 
	C130.952896,20.261600 132.146896,21.347252 133.110107,29.943062 
z"/>
<path fill="#5EE1E7" opacity="1.000000" stroke="none" 
	d="
M85.493332,62.163036 
	C83.553085,62.081009 82.057663,62.045876 80.562111,62.038750 
	C71.993683,61.997925 73.287331,61.554783 72.252167,54.317772 
	C71.793732,51.112797 73.068649,45.120865 74.784248,44.622860 
	C79.810829,43.163746 85.453667,43.787827 90.856117,43.752010 
	C91.219643,43.749603 91.768661,45.012020 91.915947,45.749203 
	C92.107933,46.710121 91.989838,47.734009 91.996078,48.730858 
	C92.047882,57.001057 92.049255,56.889812 100.486412,57.042828 
	C105.781013,57.138855 111.090820,57.443241 116.343727,58.072311 
	C117.694160,58.234035 119.863380,59.905689 119.941338,61.005276 
	C120.490341,68.749557 120.886360,76.536507 120.600510,84.282860 
	C120.539047,85.948425 117.592995,88.755966 115.811340,88.892509 
	C108.287376,89.469101 100.700424,89.329407 93.138275,89.259804 
	C89.016556,89.221870 87.974709,86.389313 87.995117,82.822304 
	C88.024597,77.670586 88.165649,72.509682 87.897949,67.371521 
	C87.806999,65.625999 86.622749,63.937450 85.493332,62.163036 
z"/>
<path fill="#5EE1E7" opacity="1.000000" stroke="none" 
	d="
M29.242962,46.921631 
	C24.468319,34.432835 31.855482,21.696684 45.272175,19.156076 
	C51.222404,18.029333 56.201260,16.644747 57.289421,9.564819 
	C57.468410,8.400259 59.386749,7.151439 60.763733,6.613483 
	C62.406414,5.971725 64.327248,5.912847 66.135849,5.853458 
	C69.278191,5.750273 74.500992,2.042222 74.692947,8.136125 
	C74.915298,15.194600 74.207512,18.798111 66.090424,19.113911 
	C59.091404,19.386211 57.684109,20.408401 56.487568,26.650011 
	C55.690800,30.806261 55.631702,35.103924 55.218987,39.593410 
	C59.497234,40.218475 64.136360,39.463753 64.131668,45.816963 
	C64.123741,56.547165 60.579639,59.857212 49.860085,57.932236 
	C45.555866,57.159302 45.709530,53.392776 46.331898,50.462975 
	C47.118649,46.759331 45.754688,45.882187 42.578445,46.101948 
	C38.279297,46.399391 33.982071,46.724640 29.242962,46.921631 
z"/>
<path fill="#132637" opacity="1.000000" stroke="none" 
	d="
M131.127655,76.932831 
	C130.244476,72.330902 129.635010,67.892693 129.463760,63.437637 
	C129.447083,63.003876 132.183578,61.938213 133.559433,62.064735 
	C140.960785,62.745369 141.478149,59.004887 140.680130,54.076107 
	C138.434830,40.208858 141.344589,41.836956 152.744446,43.265450 
	C161.434784,44.354420 162.370712,46.435711 162.996719,58.066380 
	C163.403183,65.617767 162.461105,66.627731 154.914642,66.707184 
	C154.084351,66.715927 153.253067,66.692207 152.423096,66.660988 
	C144.627823,66.367798 144.756805,66.381439 143.876465,73.923561 
	C143.730896,75.170700 142.004807,77.048569 140.824371,77.200630 
	C137.779327,77.592888 134.630798,77.181946 131.127655,76.932831 
z"/>
<path fill="#152738" opacity="1.000000" stroke="none" 
	d="
M50.224548,137.889252 
	C58.473591,138.450180 58.912506,139.250916 57.902424,151.132065 
	C45.832912,151.872177 43.271503,150.937332 44.471066,137.869919 
	C46.239140,137.869919 48.017075,137.869919 50.224548,137.889252 
z"/>
<path fill="#152638" opacity="1.000000" stroke="none" 
	d="
M138.805237,34.579971 
	C137.586609,31.139784 136.712738,27.954107 135.819733,24.698702 
	C146.998718,22.819880 148.287720,24.001478 147.973495,35.264160 
	C145.030884,35.120861 142.090424,34.977669 138.805237,34.579971 
z"/>
</svg>