<svg version="1.1" id="Layer_1" xmlns="http://www.w3.org/2000/svg" xmlns:xlink="http://www.w3.org/1999/xlink" x="0px" y="0px"
	 width="100%" viewBox="0 0 729 729" enable-background="new 0 0 729 729" xml:space="preserve">
<path fill="#F4A41D" opacity="1.000000" stroke="none" 
	d="
M730.000000,328.000000 
	C730.000000,353.020905 730.000000,378.041779 729.642212,403.211029 
	C728.869141,404.041870 728.186584,404.684875 728.079041,405.412842 
	C726.673950,414.923523 725.535461,424.476776 723.968262,433.959595 
	C720.550110,454.641815 714.499023,474.629822 707.265198,494.253540 
	C699.954407,514.086121 690.630676,532.989868 679.953857,551.219727 
	C665.618530,575.696167 648.110046,597.796631 628.854919,618.525208 
	C623.348633,624.452820 617.361511,629.995422 611.173218,635.214539 
	C599.557495,645.010925 588.053345,655.024475 575.742737,663.892456 
	C556.354858,677.858398 535.868591,690.218994 513.544922,698.978516 
	C496.106171,705.821350 478.479675,712.317993 460.587067,717.834778 
	C442.547424,723.396790 423.878845,726.449768 405.023285,728.084961 
	C404.298950,728.147827 403.672211,729.336182 403.000000,730.000000 
	C378.312439,730.000000 353.624878,730.000000 328.762390,729.631104 
	C324.481323,728.508484 320.379517,727.730408 316.268280,727.005798 
	C305.391083,725.088562 294.420013,723.594116 283.656799,721.173218 
	C273.897095,718.978088 264.363770,715.777893 254.727768,713.030762 
	C225.974365,704.833801 199.054825,692.340393 174.053650,676.203613 
	C156.867355,665.110962 140.464386,652.655457 124.594917,639.724670 
	C114.149422,631.213440 104.741592,621.241272 95.834930,611.077087 
	C84.984001,598.694092 74.724495,585.733093 64.973511,572.460571 
	C51.571663,554.218750 40.350071,534.565063 31.998915,513.512207 
	C25.086876,496.087219 18.705967,478.401489 13.154163,460.501160 
	C7.660785,442.789276 4.397943,424.501617 2.913362,405.950470 
	C2.857601,405.253723 1.663596,404.648071 1.000009,404.000000 
	C1.000000,378.645782 1.000000,353.291534 1.349273,327.800995 
	C2.131930,326.485199 2.797270,325.337006 2.961175,324.121185 
	C4.051946,316.030212 4.291818,307.744598 6.202530,299.860077 
	C10.735232,281.156036 15.337505,262.413391 21.211994,244.103531 
	C29.065092,219.626633 40.623936,196.721893 54.040863,174.789185 
	C68.078201,151.842285 84.643623,130.834534 103.192627,111.398827 
	C108.438606,105.902077 114.010338,100.663010 119.827705,95.776009 
	C131.460876,86.003311 142.976074,76.018402 155.244156,67.088577 
	C178.826416,49.923279 204.335892,35.960575 231.721542,25.901800 
	C248.391388,19.778954 265.450226,14.464408 282.685760,10.210675 
	C296.849213,6.715133 311.534851,5.343177 325.971008,2.922478 
	C326.733337,2.794648 327.327545,1.663870 328.000000,1.000001 
	C352.687561,1.000000 377.375122,1.000000 402.237610,1.368940 
	C403.428741,2.157363 404.415680,2.835081 405.465973,2.954302 
	C412.137878,3.711623 418.959137,3.723903 425.478241,5.143360 
	C441.445801,8.620103 457.446106,12.143764 473.123901,16.710472 
	C500.475433,24.677559 526.309814,36.326664 550.792725,50.950180 
	C581.595642,69.348701 609.392029,91.358040 633.613586,117.963661 
	C649.279846,135.171936 663.335144,153.463577 675.748291,173.135147 
	C689.410522,194.786179 700.429260,217.676437 708.966919,241.746033 
	C718.660583,269.074432 725.849487,297.016388 728.086487,326.066071 
	C728.139587,326.755737 729.336548,327.357330 730.000000,328.000000 
M452.000427,328.499664 
	C458.635651,321.530090 465.196259,314.486359 471.977051,307.661407 
	C473.154907,306.475922 475.263123,306.214813 476.941589,305.526703 
	C477.623383,307.431732 478.621796,309.295563 478.877167,311.256134 
	C479.051208,312.592224 478.255066,314.087494 477.775757,315.471069 
	C467.731537,344.464905 458.897003,373.805267 453.961365,404.145569 
	C450.626282,424.646973 447.285431,445.190948 445.247681,465.844177 
	C443.940979,479.088165 444.889587,492.566589 445.023560,505.937988 
	C445.230835,526.625244 449.389069,546.578369 457.075867,565.742188 
	C463.428223,581.579163 472.811066,595.624451 486.078186,606.309509 
	C504.938202,621.499023 526.699768,627.077454 550.996826,624.185242 
	C568.273926,622.128662 584.099548,616.556335 598.677490,607.576782 
	C624.056824,591.943970 643.473450,570.122253 660.385132,545.930359 
	C661.435547,544.427795 662.127625,541.450317 661.351624,540.095703 
	C656.609009,531.817078 651.393921,523.809143 646.208557,515.506348 
	C633.102295,527.129700 619.109558,535.511841 602.717407,539.710999 
	C587.505859,543.607666 572.563965,543.075928 558.727539,535.689392 
	C544.598572,528.146667 534.421326,516.235596 527.036987,502.069794 
	C512.119751,473.453400 508.122528,442.331665 507.184814,410.744110 
	C506.759125,396.405701 507.947205,381.977570 509.096680,367.645752 
	C510.289642,352.772308 511.540405,337.825562 514.180359,323.165619 
	C517.584900,304.259583 522.100830,285.534210 526.700378,266.869568 
	C529.884277,253.949646 540.294067,246.238815 549.613708,237.928543 
	C564.142761,224.973007 578.748596,212.103745 593.311584,199.186218 
	C599.609375,193.600052 605.445190,187.372574 612.260864,182.517410 
	C624.296631,173.943756 626.534180,164.221268 621.876221,151.649429 
	C614.633789,132.102173 600.409424,118.910721 581.256836,111.240227 
	C570.863525,107.077782 560.158936,107.767441 551.642944,115.340775 
	C541.547546,124.318733 532.006897,134.042053 523.116333,144.220215 
	C513.637634,155.071854 505.427521,167.020630 496.245575,178.145416 
	C486.087982,190.452286 475.590424,202.486801 464.999451,214.425705 
	C449.984772,231.351181 434.760406,248.090820 419.603973,264.890289 
	C409.972931,275.565430 400.359406,286.257324 390.636810,296.848755 
	C374.741699,314.164307 358.814789,331.451294 342.799561,348.655579 
	C334.994293,357.040314 326.941315,365.194061 319.033936,373.484314 
	C313.311371,379.483917 307.634644,385.527374 301.953674,391.566498 
	C286.393921,408.107208 270.890350,424.701630 255.177414,441.095428 
	C254.165512,442.151123 251.381561,442.219757 249.783966,441.678619 
	C249.070801,441.437073 248.567581,438.258606 249.134079,436.898102 
	C260.499695,409.602386 269.507751,381.510742 276.883728,352.929230 
	C281.442902,335.262878 285.468964,317.406494 288.583984,299.435974 
	C291.241730,284.103302 292.584656,268.513184 293.871429,252.984085 
	C294.587494,244.342072 294.257935,235.582214 293.926971,226.893494 
	C293.601471,218.347397 293.039398,209.777420 291.944092,201.300217 
	C289.496124,182.354172 284.243622,164.231979 274.298950,147.744415 
	C253.635147,113.485191 224.352753,103.737061 189.690521,109.289650 
	C168.568054,112.673286 149.553284,121.765869 132.125000,134.018204 
	C115.907150,145.419586 100.842537,158.141312 87.958450,173.364410 
	C84.406128,177.561630 80.073944,180.557297 83.936348,187.090546 
	C87.708206,193.470627 90.494019,200.433655 93.830750,207.386765 
	C106.396187,197.881180 118.786125,190.099884 133.319305,186.300507 
	C150.723083,181.750687 167.230988,183.613174 182.175568,193.820251 
	C196.656876,203.710907 205.560226,218.164703 211.858643,234.093674 
	C222.116776,260.036926 225.524124,287.403687 225.778046,315.018219 
	C225.947784,333.478058 224.647186,352.021790 222.804657,370.407715 
	C221.309418,385.328186 218.510071,400.171021 215.420151,414.865540 
	C211.284393,434.533569 204.888336,453.565918 196.529343,471.868286 
	C192.358963,480.999512 187.947174,490.049896 179.886093,496.642731 
	C171.878845,503.191559 163.967300,509.857513 156.019974,516.479553 
	C142.394180,527.833008 127.943039,537.997131 112.055817,545.926758 
	C101.318169,551.286133 101.425629,553.043884 103.771072,565.011780 
	C107.566704,584.379395 117.624229,600.576782 133.376816,612.795166 
	C143.092529,620.330994 153.330750,627.006836 166.575577,624.922668 
	C168.864136,624.562561 171.478104,623.721191 173.117371,622.208679 
	C182.025040,613.989563 190.829483,605.644775 199.376877,597.052246 
	C213.097153,583.259583 226.657227,569.305359 240.156570,555.295654 
	C252.818375,542.155151 265.384399,528.920532 277.862091,515.605103 
	C290.200500,502.438293 302.391937,489.133484 314.617554,475.861267 
	C325.713318,463.815704 336.779114,451.742371 347.838257,439.663116 
	C358.450104,428.072510 368.989410,416.415131 379.645935,404.865845 
	C392.673370,390.747070 405.696503,376.622223 418.896759,362.665802 
	C429.630676,351.317047 440.622864,340.212585 452.000427,328.499664 
z"/>
<path fill="#000000" opacity="1.000000" stroke="none" 
	d="
M403.468689,730.000000 
	C403.672211,729.336182 404.298950,728.147827 405.023285,728.084961 
	C423.878845,726.449768 442.547424,723.396790 460.587067,717.834778 
	C478.479675,712.317993 496.106171,705.821350 513.544922,698.978516 
	C535.868591,690.218994 556.354858,677.858398 575.742737,663.892456 
	C588.053345,655.024475 599.557495,645.010925 611.173218,635.214539 
	C617.361511,629.995422 623.348633,624.452820 628.854919,618.525208 
	C648.110046,597.796631 665.618530,575.696167 679.953857,551.219727 
	C690.630676,532.989868 699.954407,514.086121 707.265198,494.253540 
	C714.499023,474.629822 720.550110,454.641815 723.968262,433.959595 
	C725.535461,424.476776 726.673950,414.923523 728.079041,405.412842 
	C728.186584,404.684875 728.869141,404.041870 729.642212,403.679688 
	C730.000000,512.593872 730.000000,621.187683 730.000000,730.000000 
	C621.312561,730.000000 512.624939,730.000000 403.468689,730.000000 
z"/>
<path fill="#000000" opacity="1.000000" stroke="none" 
	d="
M730.000000,327.531342 
	C729.336548,327.357330 728.139587,326.755737 728.086487,326.066071 
	C725.849487,297.016388 718.660583,269.074432 708.966919,241.746033 
	C700.429260,217.676437 689.410522,194.786179 675.748291,173.135147 
	C663.335144,153.463577 649.279846,135.171936 633.613586,117.963661 
	C609.392029,91.358040 581.595642,69.348701 550.792725,50.950180 
	C526.309814,36.326664 500.475433,24.677559 473.123901,16.710472 
	C457.446106,12.143764 441.445801,8.620103 425.478241,5.143360 
	C418.959137,3.723903 412.137878,3.711623 405.465973,2.954302 
	C404.415680,2.835081 403.428741,2.157363 402.706238,1.368940 
	C511.927032,1.000000 620.854065,1.000000 730.000000,1.000000 
	C730.000000,109.687462 730.000000,218.375076 730.000000,327.531342 
z"/>
<path fill="#000000" opacity="1.000000" stroke="none" 
	d="
M1.000009,404.468628 
	C1.663596,404.648071 2.857601,405.253723 2.913362,405.950470 
	C4.397943,424.501617 7.660785,442.789276 13.154163,460.501160 
	C18.705967,478.401489 25.086876,496.087219 31.998915,513.512207 
	C40.350071,534.565063 51.571663,554.218750 64.973511,572.460571 
	C74.724495,585.733093 84.984001,598.694092 95.834930,611.077087 
	C104.741592,621.241272 114.149422,631.213440 124.594917,639.724670 
	C140.464386,652.655457 156.867355,665.110962 174.053650,676.203613 
	C199.054825,692.340393 225.974365,704.833801 254.727768,713.030762 
	C264.363770,715.777893 273.897095,718.978088 283.656799,721.173218 
	C294.420013,723.594116 305.391083,725.088562 316.268280,727.005798 
	C320.379517,727.730408 324.481323,728.508484 328.293732,729.631104 
	C219.073044,730.000000 110.146088,730.000000 1.000000,730.000000 
	C1.000000,621.645874 1.000000,513.291565 1.000009,404.468628 
z"/>
<path fill="#000000" opacity="1.000000" stroke="none" 
	d="
M327.531342,1.000001 
	C327.327545,1.663870 326.733337,2.794648 325.971008,2.922478 
	C311.534851,5.343177 296.849213,6.715133 282.685760,10.210675 
	C265.450226,14.464408 248.391388,19.778954 231.721542,25.901800 
	C204.335892,35.960575 178.826416,49.923279 155.244156,67.088577 
	C142.976074,76.018402 131.460876,86.003311 119.827705,95.776009 
	C114.010338,100.663010 108.438606,105.902077 103.192627,111.398827 
	C84.643623,130.834534 68.078201,151.842285 54.040863,174.789185 
	C40.623936,196.721893 29.065092,219.626633 21.211994,244.103531 
	C15.337505,262.413391 10.735232,281.156036 6.202530,299.860077 
	C4.291818,307.744598 4.051946,316.030212 2.961175,324.121185 
	C2.797270,325.337006 2.131930,326.485199 1.349273,327.332336 
	C1.000000,218.406158 1.000000,109.812309 1.000000,1.000000 
	C109.687462,1.000000 218.375076,1.000000 327.531342,1.000001 
z"/>
<path fill="#FFFFFF" opacity="1.000000" stroke="none" 
	d="
M451.750488,328.749725 
	C440.622864,340.212585 429.630676,351.317047 418.896759,362.665802 
	C405.696503,376.622223 392.673370,390.747070 379.645935,404.865845 
	C368.989410,416.415131 358.450104,428.072510 347.838257,439.663116 
	C336.779114,451.742371 325.713318,463.815704 314.617554,475.861267 
	C302.391937,489.133484 290.200500,502.438293 277.862091,515.605103 
	C265.384399,528.920532 252.818375,542.155151 240.156570,555.295654 
	C226.657227,569.305359 213.097153,583.259583 199.376877,597.052246 
	C190.829483,605.644775 182.025040,613.989563 173.117371,622.208679 
	C171.478104,623.721191 168.864136,624.562561 166.575577,624.922668 
	C153.330750,627.006836 143.092529,620.330994 133.376816,612.795166 
	C117.624229,600.576782 107.566704,584.379395 103.771072,565.011780 
	C101.425629,553.043884 101.318169,551.286133 112.055817,545.926758 
	C127.943039,537.997131 142.394180,527.833008 156.019974,516.479553 
	C163.967300,509.857513 171.878845,503.191559 179.886093,496.642731 
	C187.947174,490.049896 192.358963,480.999512 196.529343,471.868286 
	C204.888336,453.565918 211.284393,434.533569 215.420151,414.865540 
	C218.510071,400.171021 221.309418,385.328186 222.804657,370.407715 
	C224.647186,352.021790 225.947784,333.478058 225.778046,315.018219 
	C225.524124,287.403687 222.116776,260.036926 211.858643,234.093674 
	C205.560226,218.164703 196.656876,203.710907 182.175568,193.820251 
	C167.230988,183.613174 150.723083,181.750687 133.319305,186.300507 
	C118.786125,190.099884 106.396187,197.881180 93.830750,207.386765 
	C90.494019,200.433655 87.708206,193.470627 83.936348,187.090546 
	C80.073944,180.557297 84.406128,177.561630 87.958450,173.364410 
	C100.842537,158.141312 115.907150,145.419586 132.125000,134.018204 
	C149.553284,121.765869 168.568054,112.673286 189.690521,109.289650 
	C224.352753,103.737061 253.635147,113.485191 274.298950,147.744415 
	C284.243622,164.231979 289.496124,182.354172 291.944092,201.300217 
	C293.039398,209.777420 293.601471,218.347397 293.926971,226.893494 
	C294.257935,235.582214 294.587494,244.342072 293.871429,252.984085 
	C292.584656,268.513184 291.241730,284.103302 288.583984,299.435974 
	C285.468964,317.406494 281.442902,335.262878 276.883728,352.929230 
	C269.507751,381.510742 260.499695,409.602386 249.134079,436.898102 
	C248.567581,438.258606 249.070801,441.437073 249.783966,441.678619 
	C251.381561,442.219757 254.165512,442.151123 255.177414,441.095428 
	C270.890350,424.701630 286.393921,408.107208 301.953674,391.566498 
	C307.634644,385.527374 313.311371,379.483917 319.033936,373.484314 
	C326.941315,365.194061 334.994293,357.040314 342.799561,348.655579 
	C358.814789,331.451294 374.741699,314.164307 390.636810,296.848755 
	C400.359406,286.257324 409.972931,275.565430 419.603973,264.890289 
	C434.760406,248.090820 449.984772,231.351181 464.999451,214.425705 
	C475.590424,202.486801 486.087982,190.452286 496.245575,178.145416 
	C505.427521,167.020630 513.637634,155.071854 523.116333,144.220215 
	C532.006897,134.042053 541.547546,124.318733 551.642944,115.340775 
	C560.158936,107.767441 570.863525,107.077782 581.256836,111.240227 
	C600.409424,118.910721 614.633789,132.102173 621.876221,151.649429 
	C626.534180,164.221268 624.296631,173.943756 612.260864,182.517410 
	C605.445190,187.372574 599.609375,193.600052 593.311584,199.186218 
	C578.748596,212.103745 564.142761,224.973007 549.613708,237.928543 
	C540.294067,246.238815 529.884277,253.949646 526.700378,266.869568 
	C522.100830,285.534210 517.584900,304.259583 514.180359,323.165619 
	C511.540405,337.825562 510.289642,352.772308 509.096680,367.645752 
	C507.947205,381.977570 506.759125,396.405701 507.184814,410.744110 
	C508.122528,442.331665 512.119751,473.453400 527.036987,502.069794 
	C534.421326,516.235596 544.598572,528.146667 558.727539,535.689392 
	C572.563965,543.075928 587.505859,543.607666 602.717407,539.710999 
	C619.109558,535.511841 633.102295,527.129700 646.208557,515.506348 
	C651.393921,523.809143 656.609009,531.817078 661.351624,540.095703 
	C662.127625,541.450317 661.435547,544.427795 660.385132,545.930359 
	C643.473450,570.122253 624.056824,591.943970 598.677490,607.576782 
	C584.099548,616.556335 568.273926,622.128662 550.996826,624.185242 
	C526.699768,627.077454 504.938202,621.499023 486.078186,606.309509 
	C472.811066,595.624451 463.428223,581.579163 457.075867,565.742188 
	C449.389069,546.578369 445.230835,526.625244 445.023560,505.937988 
	C444.889587,492.566589 443.940979,479.088165 445.247681,465.844177 
	C447.285431,445.190948 450.626282,424.646973 453.961365,404.145569 
	C458.897003,373.805267 467.731537,344.464905 477.775757,315.471069 
	C478.255066,314.087494 479.051208,312.592224 478.877167,311.256134 
	C478.621796,309.295563 477.623383,307.431732 476.941589,305.526733 
	C475.263123,306.214813 473.154907,306.475922 471.977051,307.661407 
	C465.196259,314.486359 458.635651,321.530090 451.750488,328.749725 
z"/>
</svg>