<svg version="1.1" id="Layer_1" xmlns="http://www.w3.org/2000/svg" xmlns:xlink="http://www.w3.org/1999/xlink" x="0px" y="0px"
	 width="100%" viewBox="0 0 1466 1466" enable-background="new 0 0 1466 1466" xml:space="preserve">
<path fill="#FFFFFF" opacity="1.000000" stroke="none" 
	d="
M1.000000,542.000000 
	C1.000000,361.333374 1.000000,181.166733 1.000000,1.000072 
	C489.666534,1.000048 978.333069,1.000048 1466.999756,1.000024 
	C1466.999756,489.666473 1466.999756,978.332947 1466.999878,1466.999512 
	C978.333618,1466.999756 489.667267,1466.999756 1.000442,1466.999878 
	C1.000000,1158.833374 1.000000,850.666687 1.000000,542.000000 
M460.286560,62.800701 
	C443.727051,70.068489 427.122803,77.236298 410.618439,84.627243 
	C385.240082,95.992126 361.331116,110.026993 338.163574,125.320274 
	C311.973846,142.608551 286.716919,161.155930 263.819641,182.709503 
	C248.479202,197.149704 232.892212,211.371140 218.253082,226.500870 
	C204.192322,241.032837 190.724030,256.208710 177.880264,271.829193 
	C162.629135,290.377472 147.676468,309.242340 133.752563,328.794739 
	C110.426598,361.549774 90.173058,396.198151 73.100815,432.675842 
	C60.203346,460.233459 48.541389,488.238770 39.306034,517.272522 
	C26.978493,556.027344 16.928308,595.296814 11.973920,635.703430 
	C9.157910,658.670044 6.271327,681.709900 5.289632,704.796509 
	C4.308773,727.863342 5.262726,751.044617 6.135420,774.146790 
	C6.715444,789.501282 8.268779,804.848938 10.067044,820.119507 
	C12.037797,836.854858 14.173717,853.616089 17.336166,870.156006 
	C23.285976,901.274048 31.462404,931.869202 41.506851,961.927551 
	C53.099762,996.619751 66.657822,1030.562500 84.073334,1062.741333 
	C97.650871,1087.828857 112.034004,1112.526367 127.131920,1136.728027 
	C136.584488,1151.880127 147.482376,1166.229492 158.703644,1180.155884 
	C174.711258,1200.022583 190.912201,1219.822021 208.301453,1238.464844 
	C230.858978,1262.648438 254.504257,1285.866211 280.738068,1306.168213 
	C299.869720,1320.973999 318.842987,1336.079346 338.835327,1349.654419 
	C364.643311,1367.178101 391.651764,1382.962158 420.289093,1395.473755 
	C445.073914,1406.302246 469.984375,1417.153564 495.619293,1425.638306 
	C521.034180,1434.050415 547.316284,1439.970703 573.414246,1446.155884 
	C602.743713,1453.107300 632.704407,1456.395508 662.693115,1458.849976 
	C680.210632,1460.283813 697.837769,1460.704468 715.422913,1460.890869 
	C731.873718,1461.065430 748.363647,1460.828369 764.782654,1459.861084 
	C782.934387,1458.791626 801.044434,1456.871582 819.136169,1454.973633 
	C833.269348,1453.490967 847.408203,1451.857422 861.432190,1449.594238 
	C876.605347,1447.145752 891.778381,1444.432617 906.716370,1440.853394 
	C927.655334,1435.836304 948.659851,1430.782959 969.114258,1424.137939 
	C990.719910,1417.119141 1012.095032,1409.078979 1032.870850,1399.900513 
	C1055.920288,1389.717407 1078.754639,1378.752197 1100.620972,1366.267822 
	C1123.209106,1353.371216 1144.977661,1338.886475 1166.248169,1323.882202 
	C1183.412231,1311.774780 1199.639648,1298.257324 1215.653442,1284.626343 
	C1229.300537,1273.009888 1242.664062,1260.926880 1255.045898,1247.990723 
	C1271.092285,1231.226074 1286.653564,1213.908813 1301.290771,1195.908203 
	C1316.229370,1177.537109 1330.742798,1158.670288 1343.704712,1138.882446 
	C1357.412109,1117.956421 1369.685059,1096.014771 1381.435791,1073.906128 
	C1391.406494,1055.146484 1400.558960,1035.852417 1408.616333,1016.197510 
	C1422.411987,982.544617 1433.972900,948.049133 1441.609863,912.421570 
	C1445.973633,892.063965 1449.588501,871.528870 1452.919556,850.973022 
	C1454.926514,838.588562 1455.944946,826.028687 1457.041260,813.515564 
	C1458.542969,796.370911 1459.973389,779.210693 1460.896851,762.028259 
	C1461.456299,751.617493 1461.120850,741.150330 1460.971191,730.711609 
	C1460.754272,715.586914 1460.814331,700.436218 1459.894165,685.349182 
	C1458.716309,666.036621 1457.047729,646.735352 1454.897339,627.506714 
	C1453.246216,612.743530 1451.131470,597.974426 1448.127686,583.434204 
	C1443.976562,563.339478 1439.183228,543.355713 1433.972290,523.506226 
	C1424.627808,487.910858 1411.521484,453.647675 1395.697388,420.442841 
	C1379.583130,386.629181 1360.576416,354.520294 1339.028198,323.851501 
	C1320.384521,297.316650 1299.809570,272.344299 1277.279053,249.170486 
	C1257.844116,229.180756 1237.334473,210.109436 1216.126831,192.006668 
	C1196.366211,175.139099 1175.629761,159.259857 1154.274048,144.458878 
	C1132.330200,129.250320 1109.126831,115.857285 1086.456177,101.699463 
	C1060.458618,85.464104 1032.719482,72.598366 1004.668274,60.509670 
	C966.490540,44.056870 927.107117,30.837915 886.415588,22.285412 
	C861.384155,17.024336 835.954529,13.432028 810.564026,10.181631 
	C792.364929,7.851852 773.952087,6.886540 755.601074,6.156573 
	C743.343689,5.669002 731.016113,6.438588 718.740356,7.052647 
	C703.691406,7.805429 688.605896,8.458731 673.641235,10.107712 
	C654.269958,12.242261 634.925659,14.861215 615.707458,18.090965 
	C583.972107,23.424299 552.769043,31.199875 522.175659,41.173904 
	C501.649170,47.865932 481.384918,55.362465 460.286560,62.800701 
z"/>
<path fill="#F5F9FA" opacity="1.000000" stroke="none" 
	d="
M460.644958,62.649868 
	C481.384918,55.362465 501.649170,47.865932 522.175659,41.173904 
	C552.769043,31.199875 583.972107,23.424299 615.707458,18.090965 
	C634.925659,14.861215 654.269958,12.242261 673.641235,10.107712 
	C688.605896,8.458731 703.691406,7.805429 718.740356,7.052647 
	C731.016113,6.438588 743.343689,5.669002 755.601074,6.156573 
	C773.952087,6.886540 792.364929,7.851852 810.564026,10.181631 
	C835.954529,13.432028 861.384155,17.024336 886.415588,22.285412 
	C927.107117,30.837915 966.490540,44.056870 1004.668274,60.509670 
	C1032.719482,72.598366 1060.458618,85.464104 1086.456177,101.699463 
	C1109.126831,115.857285 1132.330200,129.250320 1154.274048,144.458878 
	C1175.629761,159.259857 1196.366211,175.139099 1216.126831,192.006668 
	C1237.334473,210.109436 1257.844116,229.180756 1277.279053,249.170486 
	C1299.809570,272.344299 1320.384521,297.316650 1339.028198,323.851501 
	C1360.576416,354.520294 1379.583130,386.629181 1395.697388,420.442841 
	C1411.521484,453.647675 1424.627808,487.910858 1433.972290,523.506226 
	C1439.183228,543.355713 1443.976562,563.339478 1448.127686,583.434204 
	C1451.131470,597.974426 1453.246216,612.743530 1454.897339,627.506714 
	C1457.047729,646.735352 1458.716309,666.036621 1459.894165,685.349182 
	C1460.814331,700.436218 1460.754272,715.586914 1460.971191,730.711609 
	C1461.120850,741.150330 1461.456299,751.617493 1460.896851,762.028259 
	C1459.973389,779.210693 1458.542969,796.370911 1457.041260,813.515564 
	C1455.944946,826.028687 1454.926514,838.588562 1452.919556,850.973022 
	C1449.588501,871.528870 1445.973633,892.063965 1441.609863,912.421570 
	C1433.972900,948.049133 1422.411987,982.544617 1408.616333,1016.197510 
	C1400.558960,1035.852417 1391.406494,1055.146484 1381.435791,1073.906128 
	C1369.685059,1096.014771 1357.412109,1117.956421 1343.704712,1138.882446 
	C1330.742798,1158.670288 1316.229370,1177.537109 1301.290771,1195.908203 
	C1286.653564,1213.908813 1271.092285,1231.226074 1255.045898,1247.990723 
	C1242.664062,1260.926880 1229.300537,1273.009888 1215.653442,1284.626343 
	C1199.639648,1298.257324 1183.412231,1311.774780 1166.248169,1323.882202 
	C1144.977661,1338.886475 1123.209106,1353.371216 1100.620972,1366.267822 
	C1078.754639,1378.752197 1055.920288,1389.717407 1032.870850,1399.900513 
	C1012.095032,1409.078979 990.719910,1417.119141 969.114258,1424.137939 
	C948.659851,1430.782959 927.655334,1435.836304 906.716370,1440.853394 
	C891.778381,1444.432617 876.605347,1447.145752 861.432190,1449.594238 
	C847.408203,1451.857422 833.269348,1453.490967 819.136169,1454.973633 
	C801.044434,1456.871582 782.934387,1458.791626 764.782654,1459.861084 
	C748.363647,1460.828369 731.873718,1461.065430 715.422913,1460.890869 
	C697.837769,1460.704468 680.210632,1460.283813 662.693115,1458.849976 
	C632.704407,1456.395508 602.743713,1453.107300 573.414246,1446.155884 
	C547.316284,1439.970703 521.034180,1434.050415 495.619293,1425.638306 
	C469.984375,1417.153564 445.073914,1406.302246 420.289093,1395.473755 
	C391.651764,1382.962158 364.643311,1367.178101 338.835327,1349.654419 
	C318.842987,1336.079346 299.869720,1320.973999 280.738068,1306.168213 
	C254.504257,1285.866211 230.858978,1262.648438 208.301453,1238.464844 
	C190.912201,1219.822021 174.711258,1200.022583 158.703644,1180.155884 
	C147.482376,1166.229492 136.584488,1151.880127 127.131920,1136.728027 
	C112.034004,1112.526367 97.650871,1087.828857 84.073334,1062.741333 
	C66.657822,1030.562500 53.099762,996.619751 41.506851,961.927551 
	C31.462404,931.869202 23.285976,901.274048 17.336166,870.156006 
	C14.173717,853.616089 12.037797,836.854858 10.067044,820.119507 
	C8.268779,804.848938 6.715444,789.501282 6.135420,774.146790 
	C5.262726,751.044617 4.308773,727.863342 5.289632,704.796509 
	C6.271327,681.709900 9.157910,658.670044 11.973920,635.703430 
	C16.928308,595.296814 26.978493,556.027344 39.306034,517.272522 
	C48.541389,488.238770 60.203346,460.233459 73.100815,432.675842 
	C90.173058,396.198151 110.426598,361.549774 133.752563,328.794739 
	C147.676468,309.242340 162.629135,290.377472 177.880264,271.829193 
	C190.724030,256.208710 204.192322,241.032837 218.253082,226.500870 
	C232.892212,211.371140 248.479202,197.149704 263.819641,182.709503 
	C286.716919,161.155930 311.973846,142.608551 338.163574,125.320274 
	C361.331116,110.026993 385.240082,95.992126 410.618439,84.627243 
	C427.122803,77.236298 443.727051,70.068489 460.644958,62.649868 
M121.916306,451.434906 
	C118.437607,459.362579 114.835693,467.238739 111.499306,475.225861 
	C78.789879,553.529541 61.341446,635.177979 59.360500,719.946533 
	C58.182312,770.363647 62.769436,820.446899 73.054733,869.874878 
	C87.372330,938.680847 111.584732,1003.829651 146.470856,1064.908203 
	C186.945023,1135.770020 238.224136,1197.675415 300.529022,1250.437134 
	C352.666809,1294.589111 410.208374,1329.912842 473.110260,1356.535522 
	C545.571838,1387.204590 621.131226,1404.601685 699.671814,1408.657837 
	C758.160156,1411.678345 816.126343,1407.153564 873.484253,1395.033569 
	C937.801636,1381.443237 998.823975,1358.808472 1056.515381,1327.499634 
	C1137.944214,1283.308594 1207.765625,1225.016113 1265.146118,1152.174072 
	C1326.480225,1074.312988 1368.268555,986.957275 1390.978027,890.464233 
	C1401.693359,844.933960 1407.634644,798.793579 1408.874023,752.052246 
	C1409.652222,722.705444 1408.135620,693.462219 1405.219116,664.240417 
	C1401.505615,627.032593 1394.457520,590.481384 1384.366333,554.544739 
	C1363.930176,481.766296 1332.377441,414.138367 1289.064331,352.109894 
	C1241.770508,284.380829 1185.156982,226.127304 1116.114258,180.106247 
	C1036.678223,127.157600 950.794678,89.977333 856.785278,72.731888 
	C829.018433,67.638229 800.782349,64.448654 772.614868,62.395813 
	C749.423462,60.705643 725.976685,61.133160 702.714600,62.192440 
	C679.632812,63.243515 656.476440,65.169922 633.639832,68.615250 
	C568.053772,78.510109 505.209656,97.834038 445.310974,126.440773 
	C378.595642,158.303040 318.681000,200.091675 265.490845,251.351273 
	C205.622498,309.046661 157.727661,375.480804 121.916306,451.434906 
z"/>
<path fill="#387898" opacity="1.000000" stroke="none" 
	d="
M122.062271,451.087799 
	C157.727661,375.480804 205.622498,309.046661 265.490845,251.351273 
	C318.681000,200.091675 378.595642,158.303040 445.310974,126.440773 
	C505.209656,97.834038 568.053772,78.510109 633.639832,68.615250 
	C656.476440,65.169922 679.632812,63.243515 702.714600,62.192440 
	C725.976685,61.133160 749.423462,60.705643 772.614868,62.395813 
	C800.782349,64.448654 829.018433,67.638229 856.785278,72.731888 
	C950.794678,89.977333 1036.678223,127.157600 1116.114258,180.106247 
	C1185.156982,226.127304 1241.770508,284.380829 1289.064331,352.109894 
	C1332.377441,414.138367 1363.930176,481.766296 1384.366333,554.544739 
	C1394.457520,590.481384 1401.505615,627.032593 1405.219116,664.240417 
	C1408.135620,693.462219 1409.652222,722.705444 1408.874023,752.052246 
	C1407.634644,798.793579 1401.693359,844.933960 1390.978027,890.464233 
	C1368.268555,986.957275 1326.480225,1074.312988 1265.146118,1152.174072 
	C1207.765625,1225.016113 1137.944214,1283.308594 1056.515381,1327.499634 
	C998.823975,1358.808472 937.801636,1381.443237 873.484253,1395.033569 
	C816.126343,1407.153564 758.160156,1411.678345 699.671814,1408.657837 
	C621.131226,1404.601685 545.571838,1387.204590 473.110260,1356.535522 
	C410.208374,1329.912842 352.666809,1294.589111 300.529022,1250.437134 
	C238.224136,1197.675415 186.945023,1135.770020 146.470856,1064.908203 
	C111.584732,1003.829651 87.372330,938.680847 73.054733,869.874878 
	C62.769436,820.446899 58.182312,770.363647 59.360500,719.946533 
	C61.341446,635.177979 78.789879,553.529541 111.499306,475.225861 
	C114.835693,467.238739 118.437607,459.362579 122.062271,451.087799 
M654.882996,929.999878 
	C676.004639,929.991028 697.126282,930.000732 718.247742,929.935852 
	C719.831299,929.930969 721.413330,929.392395 723.932739,929.058533 
	C860.764587,929.023254 997.596497,929.004333 1134.428345,928.922119 
	C1145.587280,928.915405 1155.037231,932.609131 1163.521973,939.889404 
	C1185.892212,959.083984 1207.394287,960.307007 1231.765259,943.644897 
	C1240.594971,937.608032 1248.848633,930.711487 1257.217896,924.022888 
	C1266.442505,916.650696 1275.497559,909.066467 1285.180786,901.119751 
	C1282.808960,899.789001 1280.630859,898.373962 1278.298584,897.291870 
	C1268.068970,892.545959 1257.821899,887.835876 1247.530396,883.226135 
	C1232.439087,876.466492 1217.363647,869.665588 1202.162964,863.159058 
	C1194.811890,860.012573 1188.259399,860.723206 1181.757812,866.643555 
	C1169.924194,877.419312 1155.229370,882.829163 1139.718750,885.999573 
	C1129.527710,888.082764 1119.265381,889.589783 1108.039307,888.052795 
	C1106.484131,887.627625 1104.951904,887.066711 1103.370117,886.798645 
	C1089.887573,884.513794 1076.396118,882.282166 1062.880249,879.321655 
	C1063.545166,878.367554 1064.173584,877.385437 1064.880127,876.463379 
	C1126.167725,796.491882 1187.468628,716.530579 1248.746704,636.551880 
	C1258.246704,624.152771 1267.644653,611.675720 1277.197998,599.092224 
	C1269.959106,591.378845 1262.955811,583.916504 1256.047729,576.555542 
	C1239.229126,588.592896 1222.655273,600.030701 1206.576904,612.127197 
	C1197.428101,619.010193 1187.689697,625.852051 1180.656738,634.660522 
	C1161.984497,658.046387 1143.995850,682.044800 1126.928101,706.627747 
	C1106.148071,736.557373 1086.839233,767.504822 1066.363647,797.651672 
	C1059.004761,808.486328 1050.631592,818.756287 1041.779907,828.421814 
	C1030.089355,841.187317 1015.771851,850.679321 999.238464,857.935547 
	C980.201904,865.848267 960.278809,867.955566 940.035583,865.661560 
	C929.566956,864.475342 919.316284,861.364502 908.712036,858.492920 
	C890.346558,838.048401 871.902466,817.673889 853.635681,797.141602 
	C831.470093,772.226868 811.269348,745.839783 793.504272,717.558228 
	C776.960510,691.220886 760.591003,664.721375 742.780029,639.247498 
	C724.971313,613.776978 702.720764,592.462463 675.064331,577.537598 
	C639.144104,558.153076 602.443054,556.534119 565.590942,574.507446 
	C541.383972,586.313416 521.943909,604.260254 505.085327,625.023804 
	C486.653473,647.724976 471.808197,672.739990 458.296783,698.591736 
	C451.751099,711.115723 445.144989,723.608643 438.499573,736.080017 
	C422.058105,766.935669 403.067902,795.918640 376.283752,819.922241 
	C374.131195,821.930664 371.978607,823.939148 369.335541,826.058655 
	C369.130920,826.314331 368.926300,826.570007 368.104706,827.064331 
	C353.470886,837.087769 338.837097,847.111145 324.094116,856.194641 
	C323.376617,820.476196 322.659088,784.757751 322.022491,748.097900 
	C322.001526,735.970215 322.012299,723.842285 321.921021,711.715149 
	C321.909058,710.130005 321.372986,708.548828 321.065552,706.032959 
	C321.007324,696.338440 320.949097,686.643860 320.990723,676.026123 
	C320.989532,658.558533 321.012360,641.090820 320.945770,623.623535 
	C320.939850,622.064331 320.353363,620.507324 320.010559,618.018738 
	C319.674683,606.580322 319.187561,595.143738 319.042358,583.702942 
	C318.872528,570.319031 319.001312,556.931335 318.999420,543.545288 
	C318.997894,532.679993 323.181824,523.421021 329.591400,514.867310 
	C337.711548,504.030762 344.120514,492.350067 345.033691,478.457916 
	C346.018768,463.473145 339.511658,451.092712 330.927094,439.558716 
	C320.318970,425.305786 309.597839,411.136932 298.900085,396.950989 
	C298.651764,396.621735 298.100677,396.520813 298.155487,396.548553 
	C286.134857,411.889801 274.102631,426.932220 262.438232,442.254669 
	C255.846680,450.913422 250.975388,460.507385 250.005051,471.636597 
	C248.565109,488.151703 256.439148,501.091339 266.543732,512.853271 
	C272.022858,519.231140 275.115784,526.127380 274.954529,534.417236 
	C274.841919,540.207336 274.006348,545.992432 274.055573,551.775024 
	C274.287598,579.043823 274.713287,606.310852 275.071594,633.578552 
	C275.073792,633.744568 275.099487,633.910278 275.028961,634.994873 
	C275.057404,656.636047 275.085846,678.277222 275.030701,700.862549 
	C275.006470,709.250549 274.982239,717.638489 274.451935,726.665222 
	C274.323181,738.105530 274.194427,749.545898 274.019073,761.924194 
	C274.377197,777.201904 273.975861,792.546143 275.307129,807.738586 
	C276.637177,822.916260 276.197296,837.936462 273.352570,852.705322 
	C268.828400,876.193298 254.641922,892.629944 233.243805,902.937378 
	C227.792801,905.563110 222.182663,907.858337 216.426254,910.402283 
	C217.116821,910.947449 217.473450,911.293884 217.887375,911.546387 
	C240.165344,925.137512 262.404083,938.794373 284.809235,952.172668 
	C286.719147,953.313171 289.942047,953.284729 292.213226,952.624146 
	C307.824402,948.083069 323.397156,943.393250 338.880035,938.432190 
	C356.546967,932.771240 374.565247,929.861938 393.132111,929.961609 
	C415.777618,930.083191 438.424683,929.919861 461.990295,929.976746 
	C494.980804,929.947693 527.971313,929.918579 561.901062,929.996338 
	C592.579285,929.972961 623.257446,929.949585 654.882996,929.999878 
z"/>
<path fill="#8EBC5D" opacity="1.000000" stroke="none" 
	d="
M1108.814697,888.145630 
	C1119.265381,889.589783 1129.527710,888.082764 1139.718750,885.999573 
	C1155.229370,882.829163 1169.924194,877.419312 1181.757812,866.643555 
	C1188.259399,860.723206 1194.811890,860.012573 1202.162964,863.159058 
	C1217.363647,869.665588 1232.439087,876.466492 1247.530396,883.226135 
	C1257.821899,887.835876 1268.068970,892.545959 1278.298584,897.291870 
	C1280.630859,898.373962 1282.808960,899.789001 1285.180786,901.119751 
	C1275.497559,909.066467 1266.442505,916.650696 1257.217896,924.022888 
	C1248.848633,930.711487 1240.594971,937.608032 1231.765259,943.644897 
	C1207.394287,960.307007 1185.892212,959.083984 1163.521973,939.889404 
	C1155.037231,932.609131 1145.587280,928.915405 1134.428345,928.922119 
	C997.596497,929.004333 860.764587,929.023254 722.999023,929.031006 
	C699.389587,929.026611 676.713989,929.049805 653.568054,929.044922 
	C622.406738,929.023560 591.715759,929.030090 560.554688,929.021667 
	C528.657593,929.008423 497.230377,928.997681 465.803314,929.048889 
	C464.225464,929.051453 462.648468,929.590515 461.071075,929.879761 
	C438.424683,929.919861 415.777618,930.083191 393.132111,929.961609 
	C374.565247,929.861938 356.546967,932.771240 338.880035,938.432190 
	C323.397156,943.393250 307.824402,948.083069 292.213226,952.624146 
	C289.942047,953.284729 286.719147,953.313171 284.809235,952.172668 
	C262.404083,938.794373 240.165344,925.137512 217.887375,911.546387 
	C217.473450,911.293884 217.116821,910.947449 216.426254,910.402283 
	C222.182663,907.858337 227.792801,905.563110 233.243805,902.937378 
	C254.641922,892.629944 268.828400,876.193298 273.352570,852.705322 
	C276.197296,837.936462 276.637177,822.916260 275.307129,807.738586 
	C273.975861,792.546143 274.377197,777.201904 274.324158,761.153442 
	C274.738861,748.930664 274.848450,737.478577 274.958038,726.026489 
	C274.982239,717.638489 275.006470,709.250549 275.339661,700.088013 
	C275.743500,678.147827 275.844940,656.982056 275.898590,635.816284 
	C275.900055,635.236877 275.387207,634.656250 275.114166,634.076172 
	C275.099487,633.910278 275.073792,633.744568 275.071594,633.578552 
	C274.713287,606.310852 274.287598,579.043823 274.055573,551.775024 
	C274.006348,545.992432 274.841919,540.207336 274.954529,534.417236 
	C275.115784,526.127380 272.022858,519.231140 266.543732,512.853271 
	C256.439148,501.091339 248.565109,488.151703 250.005051,471.636597 
	C250.975388,460.507385 255.846680,450.913422 262.438232,442.254669 
	C274.102631,426.932220 286.134857,411.889801 298.155487,396.548553 
	C298.100677,396.520813 298.651764,396.621735 298.900085,396.950989 
	C309.597839,411.136932 320.318970,425.305786 330.927094,439.558716 
	C339.511658,451.092712 346.018768,463.473145 345.033691,478.457916 
	C344.120514,492.350067 337.711548,504.030762 329.591400,514.867310 
	C323.181824,523.421021 318.997894,532.679993 318.999420,543.545288 
	C319.001312,556.931335 318.872528,570.319031 319.042358,583.702942 
	C319.187561,595.143738 319.674683,606.580322 320.007141,618.956909 
	C320.002991,637.340149 319.979462,654.785278 320.040161,672.230164 
	C320.045624,673.804138 320.594391,675.376343 320.890869,676.949341 
	C320.949097,686.643860 321.007324,696.338440 321.028229,706.969238 
	C321.011719,720.034790 321.000549,732.164185 321.092377,744.292847 
	C321.104370,745.877014 321.645538,747.457275 321.941589,749.039307 
	C322.659088,784.757751 323.376617,820.476196 324.121826,857.119385 
	C324.176483,860.794556 324.500183,863.583130 324.152527,866.285278 
	C323.750366,869.411133 325.009583,870.738892 327.903168,871.430664 
	C327.293732,873.212891 326.658752,874.630310 325.598328,876.997375 
	C341.687775,879.682312 357.080322,882.432495 372.537537,884.751648 
	C379.980743,885.868469 387.545837,886.173157 395.456177,886.943359 
	C398.958344,887.324707 402.060028,887.608276 405.619537,887.918274 
	C420.734314,887.928650 435.391235,887.912659 450.509949,887.937500 
	C488.983490,887.947266 526.995300,887.916138 565.474121,887.919983 
	C590.038147,887.895874 614.135132,887.836792 638.678833,887.798706 
	C646.430969,887.803711 653.736511,887.787720 661.503906,887.835327 
	C732.627625,887.939331 803.289490,887.983337 873.951355,888.012878 
	C879.281799,888.015076 884.612305,887.913208 890.365356,887.924133 
	C892.495239,888.045044 894.202454,888.101440 896.175842,888.458740 
	C898.620972,888.781311 900.800049,888.803101 903.439941,888.894775 
	C907.953064,888.918701 912.005432,888.872681 916.486450,888.895813 
	C918.945618,888.980042 920.976074,888.995239 923.467773,889.101318 
	C930.229065,889.164490 936.530334,889.206604 942.828918,889.095581 
	C961.213684,888.771606 979.597351,888.386536 998.449707,888.075439 
	C1009.233398,887.908325 1019.552795,887.395081 1029.863281,887.534424 
	C1052.606079,887.841614 1075.343506,888.523865 1098.085327,888.931702 
	C1101.656006,888.995789 1105.237915,888.423584 1108.814697,888.145630 
z"/>
<path fill="#E8F2F4" opacity="1.000000" stroke="none" 
	d="
M916.057739,888.826721 
	C912.005432,888.872681 907.953064,888.918701 903.352051,888.534424 
	C900.505493,888.122070 898.207642,888.139954 895.909729,888.157898 
	C894.202454,888.101440 892.495239,888.045044 890.068604,887.658447 
	C879.503296,886.217590 869.650635,885.161011 859.819580,883.931091 
	C858.514099,883.767761 857.013916,883.001953 856.129700,882.034546 
	C853.450195,879.103027 850.987854,875.968201 848.514221,872.854248 
	C834.817871,855.613098 821.165649,838.336731 807.404297,821.147644 
	C806.588318,820.128296 804.954102,819.763916 803.426758,818.916748 
	C765.739136,767.730591 728.378479,716.683289 690.881897,665.736023 
	C678.205994,648.513000 664.388428,632.278625 646.437134,620.215454 
	C626.514771,606.827698 605.997803,605.291931 585.000244,617.888306 
	C569.718201,627.055969 557.510559,639.654846 547.489929,654.023438 
	C532.933838,674.895264 519.183105,696.347900 505.610474,717.881531 
	C489.286407,743.780396 473.509186,770.023865 457.117371,796.113892 
	C455.438141,797.514954 453.886322,798.760437 452.872711,800.349365 
	C435.593994,827.435059 418.427216,854.592407 401.068604,881.626709 
	C399.692596,883.769714 397.088867,885.124451 395.055725,886.845581 
	C387.545837,886.173157 379.980743,885.868469 372.537537,884.751648 
	C357.080322,882.432495 341.687775,879.682312 325.598328,876.997375 
	C326.658752,874.630310 327.293732,873.212891 328.280090,871.411743 
	C329.719208,870.410522 331.047485,870.014526 331.854248,869.138367 
	C335.996277,864.639587 339.893890,859.913574 344.082764,855.460632 
	C351.918060,847.131287 359.936768,838.974304 367.748901,830.623718 
	C368.531769,829.786804 368.418854,828.111755 368.721680,826.825745 
	C368.926300,826.570007 369.130920,826.314331 369.961487,826.013489 
	C372.688538,823.844116 374.789581,821.719971 376.890625,819.595764 
	C403.067902,795.918640 422.058105,766.935669 438.499573,736.080017 
	C445.144989,723.608643 451.751099,711.115723 458.296783,698.591736 
	C471.808197,672.739990 486.653473,647.724976 505.085327,625.023804 
	C521.943909,604.260254 541.383972,586.313416 565.590942,574.507446 
	C602.443054,556.534119 639.144104,558.153076 675.064331,577.537598 
	C702.720764,592.462463 724.971313,613.776978 742.780029,639.247498 
	C760.591003,664.721375 776.960510,691.220886 793.504272,717.558228 
	C811.269348,745.839783 831.470093,772.226868 853.635681,797.141602 
	C871.902466,817.673889 890.346558,838.048401 908.860352,859.166077 
	C909.472046,860.854065 909.883057,861.896912 910.408020,862.878784 
	C912.465515,866.727295 915.405701,870.348511 916.413513,874.448547 
	C917.539978,879.031738 920.462891,884.185120 916.057739,888.826721 
z"/>
<path fill="#E2EEEF" opacity="1.000000" stroke="none" 
	d="
M997.981445,888.025391 
	C979.597351,888.386536 961.213684,888.771606 942.828918,889.095581 
	C936.530334,889.206604 930.229065,889.164490 923.428406,888.739624 
	C921.431335,883.802429 919.733765,879.372559 918.496399,874.817627 
	C917.314880,870.468018 918.496643,869.555298 923.010071,870.140747 
	C928.887756,870.903137 934.789612,871.724548 940.701721,871.931885 
	C958.767761,872.565308 976.246643,869.390137 993.044922,862.766846 
	C995.607727,861.756409 997.704590,859.564087 1000.016907,857.918396 
	C1015.771851,850.679321 1030.089355,841.187317 1041.779907,828.421814 
	C1050.631592,818.756287 1059.004761,808.486328 1066.363647,797.651672 
	C1086.839233,767.504822 1106.148071,736.557373 1126.928101,706.627747 
	C1143.995850,682.044800 1161.984497,658.046387 1180.656738,634.660522 
	C1187.689697,625.852051 1197.428101,619.010193 1206.576904,612.127197 
	C1222.655273,600.030701 1239.229126,588.592896 1256.047729,576.555542 
	C1262.955811,583.916504 1269.959106,591.378845 1277.197998,599.092224 
	C1267.644653,611.675720 1258.246704,624.152771 1248.746704,636.551880 
	C1187.468628,716.530579 1126.167725,796.491882 1064.880127,876.463379 
	C1064.173584,877.385437 1063.545166,878.367554 1062.530518,879.721924 
	C1059.249146,881.078796 1056.371826,882.608215 1053.376343,882.893005 
	C1040.254272,884.140747 1027.092041,884.958679 1013.956848,886.079712 
	C1008.615295,886.535522 1003.305603,887.365601 997.981445,888.025391 
z"/>
<path fill="#F7F9FB" opacity="1.000000" stroke="none" 
	d="
M999.627686,857.927002 
	C997.704590,859.564087 995.607727,861.756409 993.044922,862.766846 
	C976.246643,869.390137 958.767761,872.565308 940.701721,871.931885 
	C934.789612,871.724548 928.887756,870.903137 923.010071,870.140747 
	C918.496643,869.555298 917.314880,870.468018 918.496399,874.817627 
	C919.733765,879.372559 921.431335,883.802429 922.967163,888.648682 
	C920.976074,888.995239 918.945618,888.980042 916.486450,888.895813 
	C920.462891,884.185120 917.539978,879.031738 916.413513,874.448547 
	C915.405701,870.348511 912.465515,866.727295 910.408020,862.878784 
	C909.883057,861.896912 909.472046,860.854065 908.987915,859.481262 
	C919.316284,861.364502 929.566956,864.475342 940.035583,865.661560 
	C960.278809,867.955566 980.201904,865.848267 999.627686,857.927002 
z"/>
<path fill="#FAFCFB" opacity="1.000000" stroke="none" 
	d="
M368.413208,826.945068 
	C368.418854,828.111755 368.531769,829.786804 367.748901,830.623718 
	C359.936768,838.974304 351.918060,847.131287 344.082764,855.460632 
	C339.893890,859.913574 335.996277,864.639587 331.854248,869.138367 
	C331.047485,870.014526 329.719208,870.410522 328.254547,871.046875 
	C325.009583,870.738892 323.750366,869.411133 324.152527,866.285278 
	C324.500183,863.583130 324.176483,860.794556 324.176392,857.589355 
	C338.837097,847.111145 353.470886,837.087769 368.413208,826.945068 
z"/>
<path fill="#F7FAF7" opacity="1.000000" stroke="none" 
	d="
M998.449707,888.075439 
	C1003.305603,887.365601 1008.615295,886.535522 1013.956848,886.079712 
	C1027.092041,884.958679 1040.254272,884.140747 1053.376343,882.893005 
	C1056.371826,882.608215 1059.249146,881.078796 1062.543945,880.078369 
	C1076.396118,882.282166 1089.887573,884.513794 1103.370117,886.798645 
	C1104.951904,887.066711 1106.484131,887.627625 1108.427002,888.099243 
	C1105.237915,888.423584 1101.656006,888.995789 1098.085327,888.931702 
	C1075.343506,888.523865 1052.606079,887.841614 1029.863281,887.534424 
	C1019.552795,887.395081 1009.233398,887.908325 998.449707,888.075439 
z"/>
<path fill="#9CC287" opacity="1.000000" stroke="none" 
	d="
M461.530701,929.928284 
	C462.648468,929.590515 464.225464,929.051453 465.803314,929.048889 
	C497.230377,928.997681 528.657593,929.008423 560.541260,929.234863 
	C560.997742,929.463074 560.961792,929.889526 560.961792,929.889526 
	C527.971313,929.918579 494.980804,929.947693 461.530701,929.928284 
z"/>
<path fill="#86B199" opacity="1.000000" stroke="none" 
	d="
M561.431396,929.942932 
	C560.961792,929.889526 560.997742,929.463074 561.011230,929.249878 
	C591.715759,929.030090 622.406738,929.023560 653.545044,929.258301 
	C653.992371,929.499573 653.935669,929.926208 653.935669,929.926208 
	C623.257446,929.949585 592.579285,929.972961 561.431396,929.942932 
z"/>
<path fill="#5E949C" opacity="1.000000" stroke="none" 
	d="
M654.409302,929.963013 
	C653.935669,929.926208 653.992371,929.499573 654.015381,929.286255 
	C676.713989,929.049805 699.389587,929.026611 722.530640,929.052734 
	C721.413330,929.392395 719.831299,929.930969 718.247742,929.935852 
	C697.126282,930.000732 676.004639,929.991028 654.409302,929.963013 
z"/>
<path fill="#9CC287" opacity="1.000000" stroke="none" 
	d="
M275.071564,634.535522 
	C275.387207,634.656250 275.900055,635.236877 275.898590,635.816284 
	C275.844940,656.982056 275.743500,678.147827 275.381439,699.615967 
	C275.085846,678.277222 275.057404,656.636047 275.071564,634.535522 
z"/>
<path fill="#9CC287" opacity="1.000000" stroke="none" 
	d="
M320.940796,676.487732 
	C320.594391,675.376343 320.045624,673.804138 320.040161,672.230164 
	C319.979462,654.785278 320.002991,637.340149 320.020111,619.422241 
	C320.353363,620.507324 320.939850,622.064331 320.945770,623.623535 
	C321.012360,641.090820 320.989532,658.558533 320.940796,676.487732 
z"/>
<path fill="#6C9F8E" opacity="1.000000" stroke="none" 
	d="
M321.982056,748.568604 
	C321.645538,747.457275 321.104370,745.877014 321.092377,744.292847 
	C321.000549,732.164185 321.011719,720.034790 321.035278,707.435669 
	C321.372986,708.548828 321.909058,710.130005 321.921021,711.715149 
	C322.012299,723.842285 322.001526,735.970215 321.982056,748.568604 
z"/>
<path fill="#86B199" opacity="1.000000" stroke="none" 
	d="
M274.704987,726.345825 
	C274.848450,737.478577 274.738861,748.930664 274.347473,760.684448 
	C274.194427,749.545898 274.323181,738.105530 274.704987,726.345825 
z"/>
<path fill="#FAFCFB" opacity="1.000000" stroke="none" 
	d="
M376.587189,819.759033 
	C374.789581,821.719971 372.688538,823.844116 370.206757,825.958008 
	C371.978607,823.939148 374.131195,821.930664 376.587189,819.759033 
z"/>
<path fill="#3A7B98" opacity="1.000000" stroke="none" 
	d="
M457.495178,796.118103 
	C473.509186,770.023865 489.286407,743.780396 505.610474,717.881531 
	C519.183105,696.347900 532.933838,674.895264 547.489929,654.023438 
	C557.510559,639.654846 569.718201,627.055969 585.000244,617.888306 
	C605.997803,605.291931 626.514771,606.827698 646.437134,620.215454 
	C664.388428,632.278625 678.205994,648.513000 690.881897,665.736023 
	C728.378479,716.683289 765.739136,767.730591 803.551025,819.242310 
	C819.869019,840.928894 835.788940,862.111938 852.150696,883.882874 
	C819.043518,884.595825 786.960571,885.386780 754.873596,885.949036 
	C723.593567,886.497131 692.309509,886.811401 660.562988,887.146606 
	C652.788513,887.127319 645.478333,887.189819 637.700195,887.142334 
	C613.176819,887.054199 589.121399,887.075989 564.595093,887.051941 
	C527.518921,887.023315 490.913605,887.031189 454.308380,887.093201 
	C452.887878,887.095581 451.468231,887.617065 450.048187,887.896667 
	C435.391235,887.912659 420.734314,887.928650 405.736572,887.614258 
	C410.994202,877.115112 416.439087,866.858093 422.223389,856.796082 
	C433.882904,836.513916 445.727142,816.337891 457.495178,796.118103 
z"/>
<path fill="#F5F9FA" opacity="1.000000" stroke="none" 
	d="
M661.027222,887.228271 
	C692.309509,886.811401 723.593567,886.497131 754.873596,885.949036 
	C786.960571,885.386780 819.043518,884.595825 852.150696,883.882874 
	C835.788940,862.111938 819.869019,840.928894 803.824829,819.420288 
	C804.954102,819.763916 806.588318,820.128296 807.404297,821.147644 
	C821.165649,838.336731 834.817871,855.613098 848.514221,872.854248 
	C850.987854,875.968201 853.450195,879.103027 856.129700,882.034546 
	C857.013916,883.001953 858.514099,883.767761 859.819580,883.931091 
	C869.650635,885.161011 879.503296,886.217590 889.645996,887.593994 
	C884.612305,887.913208 879.281799,888.015076 873.951355,888.012878 
	C803.289490,887.983337 732.627625,887.939331 661.501282,887.699585 
	C661.036804,887.500183 661.027222,887.228271 661.027222,887.228271 
z"/>
<path fill="#F7F9FB" opacity="1.000000" stroke="none" 
	d="
M457.117340,796.113892 
	C445.727142,816.337891 433.882904,836.513916 422.223389,856.796082 
	C416.439087,866.858093 410.994202,877.115112 405.278748,887.587891 
	C402.060028,887.608276 398.958344,887.324707 395.456177,886.943359 
	C397.088867,885.124451 399.692596,883.769714 401.068604,881.626709 
	C418.427216,854.592407 435.593994,827.435059 452.872711,800.349365 
	C453.886322,798.760437 455.438141,797.514954 457.117340,796.113892 
z"/>
<path fill="#6B9CB1" opacity="1.000000" stroke="none" 
	d="
M450.509949,887.937500 
	C451.468231,887.617065 452.887878,887.095581 454.308380,887.093201 
	C490.913605,887.031189 527.518921,887.023315 564.572510,887.247803 
	C565.020752,887.489502 565.007080,887.884949 565.007080,887.885010 
	C526.995300,887.916138 488.983490,887.947266 450.509949,887.937500 
z"/>
<path fill="#91B6C6" opacity="1.000000" stroke="none" 
	d="
M565.474121,887.919922 
	C565.007080,887.884949 565.020752,887.489502 565.043335,887.293640 
	C589.121399,887.075989 613.176819,887.054199 637.708984,887.274353 
	C638.185730,887.516357 638.232117,887.777710 638.232117,887.777710 
	C614.135132,887.836792 590.038147,887.895874 565.474121,887.919922 
z"/>
<path fill="#E2EEEF" opacity="1.000000" stroke="none" 
	d="
M638.678833,887.798706 
	C638.232117,887.777710 638.185730,887.516357 638.176941,887.384338 
	C645.478333,887.189819 652.788513,887.127319 660.562988,887.146606 
	C661.027222,887.228271 661.036804,887.500183 661.039429,887.635986 
	C653.736511,887.787720 646.430969,887.803711 638.678833,887.798706 
z"/>
<path fill="#F5F9FA" opacity="1.000000" stroke="none" 
	d="
M896.175842,888.458740 
	C898.207642,888.139954 900.505493,888.122070 902.891235,888.464478 
	C900.800049,888.803101 898.620972,888.781311 896.175842,888.458740 
z"/>
</svg>