<?xml version="1.0" standalone="no"?>
<!DOCTYPE svg PUBLIC "-//W3C//DTD SVG 20010904//EN"
 "http://www.w3.org/TR/2001/REC-SVG-20010904/DTD/svg10.dtd">
<svg version="1.0" xmlns="http://www.w3.org/2000/svg"
 width="1000.000000pt" height="1000.000000pt" viewBox="0 0 1000.000000 1000.000000"
 preserveAspectRatio="xMidYMid meet">
<metadata>
Created by potrace 1.14, written by Peter Selinger 2001-2017
</metadata>
<g transform="translate(0.000000,1000.000000) scale(0.100000,-0.100000)"
fill="#000000" stroke="none">
<path d="M6900 8031 c-28 -13 -39 -26 -54 -71 -27 -79 -28 -257 0 -400 21
-115 81 -268 135 -347 16 -23 29 -46 29 -52 0 -6 4 -11 8 -11 4 0 15 -12 24
-27 27 -46 149 -165 218 -215 74 -52 119 -77 273 -147 136 -63 167 -85 167
-118 0 -22 -25 -80 -41 -93 -3 -3 -18 -24 -33 -48 -40 -64 -188 -211 -291
-287 -49 -37 -97 -70 -105 -73 -8 -3 -17 -8 -20 -12 -23 -29 -323 -155 -419
-175 -111 -24 -169 -34 -182 -32 -29 5 -46 26 -53 66 -6 43 -41 86 -83 103
-15 6 -56 12 -91 14 -78 3 -125 -13 -296 -100 -70 -36 -131 -65 -135 -64 -3 1
-30 -4 -60 -11 -38 -10 -90 -12 -183 -7 -71 3 -133 8 -136 10 -4 2 -36 7 -72
10 -36 4 -92 11 -125 16 -33 5 -78 11 -100 15 -120 17 -287 51 -465 95 -69 17
-133 33 -143 35 -56 13 -331 90 -447 125 -74 23 -142 43 -150 45 -8 1 -37 10
-65 18 -27 9 -146 43 -263 77 -117 33 -225 66 -240 71 -15 6 -35 12 -44 14
-21 5 -216 73 -243 86 -34 16 -156 59 -240 85 -158 48 -182 58 -340 135 -135
66 -186 87 -280 115 -39 12 -155 35 -203 40 -153 18 -1084 2 -1293 -21 -252
-28 -461 -128 -552 -265 -40 -59 -9 -96 89 -106 32 -3 98 -14 145 -25 48 -10
102 -21 120 -23 19 -3 68 -10 109 -16 41 -6 94 -13 116 -16 23 -3 52 -7 64 -9
12 -2 58 -7 103 -10 45 -4 93 -8 107 -11 14 -2 99 -5 190 -5 141 -1 183 3 293
26 232 48 407 38 543 -30 94 -47 156 -109 232 -231 33 -55 85 -128 116 -163
31 -36 56 -68 56 -73 0 -4 7 -16 15 -25 9 -10 51 -63 94 -118 219 -281 428
-401 1003 -576 55 -17 68 -8 69 48 1 72 8 103 32 153 20 40 26 45 56 45 25 0
39 -7 54 -27 19 -26 19 -26 -1 -164 -19 -131 -23 -368 -8 -444 2 -14 7 -46 11
-72 5 -42 12 -79 31 -168 50 -235 178 -532 313 -725 148 -212 320 -374 570
-540 390 -258 625 -352 872 -348 87 1 131 19 154 63 33 64 16 89 -139 204
-314 234 -385 365 -489 906 -48 248 -198 463 -438 626 -215 147 -275 204 -333
313 -41 78 -76 180 -76 221 0 31 27 60 56 60 26 0 80 -53 100 -99 75 -172 88
-186 274 -308 63 -42 145 -98 181 -124 80 -59 135 -80 305 -114 130 -26 613
-26 807 0 21 3 104 7 186 9 153 5 190 11 301 51 311 112 601 323 993 723 98
100 157 142 157 112 0 -8 -50 -101 -83 -154 -7 -11 -26 -43 -44 -72 -83 -134
-256 -321 -444 -479 -97 -81 -248 -184 -364 -247 -69 -38 -413 -208 -420 -208
-2 0 -32 -13 -67 -29 -265 -121 -546 -202 -810 -236 -26 -3 -54 -8 -62 -11
-32 -12 -31 -66 3 -113 30 -41 68 -46 201 -24 25 4 52 8 61 8 29 4 80 14 201
44 78 19 227 67 283 90 11 5 72 31 135 57 136 58 448 214 578 291 129 75 331
218 407 287 13 11 50 44 81 71 137 118 265 264 372 423 178 265 257 426 438
897 87 227 153 309 268 331 12 2 32 6 46 8 14 3 48 8 75 12 28 3 60 8 72 9
176 24 375 82 508 149 198 99 354 242 482 439 98 152 165 335 167 455 1 67 -1
75 -24 92 -53 40 -104 30 -181 -36 -127 -108 -198 -148 -299 -166 -82 -15
-198 -6 -330 25 -185 44 -357 38 -474 -17 -53 -24 -167 -106 -189 -134 -6 -10
-29 -31 -49 -49 -53 -45 -69 -37 -142 76 -94 145 -196 227 -336 272 -53 17
-96 21 -235 24 -94 1 -192 8 -220 15 -121 31 -222 109 -290 225 -42 73 -52 83
-92 94 -20 6 -39 4 -63 -8z m-3631 -2008 c3 -2 -5 -20 -16 -41 -19 -34 -20
-40 -7 -64 15 -28 22 -31 84 -32 31 -1 35 -4 32 -25 -5 -32 -28 -66 -58 -86
-28 -18 -102 -22 -130 -7 -32 17 -74 67 -83 99 -17 59 32 145 93 162 28 8 73
5 85 -6z"/>
<path d="M2975 8027 c-69 -23 -97 -72 -98 -176 -2 -86 1 -101 43 -261 42 -161
46 -168 87 -176 45 -9 68 13 83 79 12 52 38 149 48 177 7 20 8 26 28 95 21 77
14 162 -16 205 -39 54 -112 78 -175 57z"/>
<path d="M2417 7616 c-45 -17 -95 -70 -103 -112 -3 -17 -1 -49 5 -71 17 -62
64 -96 176 -128 66 -19 132 -53 155 -82 23 -27 73 -104 89 -134 7 -14 23 -38
35 -54 20 -24 27 -27 58 -21 25 4 39 14 48 34 8 15 13 29 13 32 -1 3 -3 25 -6
50 -17 136 -135 344 -240 421 -52 39 -140 79 -170 79 -12 -1 -39 -7 -60 -14z"/>
<path d="M3469 7607 c-147 -54 -312 -310 -353 -547 -5 -32 9 -52 52 -74 51
-26 61 -17 127 126 43 94 135 164 244 187 68 14 114 42 140 85 47 75 25 176
-44 209 -50 24 -123 30 -166 14z"/>
<path d="M652 6392 c-76 -12 -51 -149 78 -419 59 -123 157 -295 172 -301 4 -2
8 -8 8 -14 0 -6 32 -55 70 -109 68 -94 80 -119 61 -119 -14 0 -159 145 -222
220 -30 36 -57 67 -60 70 -19 16 -119 176 -159 253 -40 78 -107 238 -115 272
-15 72 -40 128 -60 137 -31 14 -91 2 -117 -24 -26 -26 -21 -72 22 -199 82
-244 265 -534 464 -734 145 -147 214 -197 403 -294 77 -40 196 -118 238 -157
63 -59 276 -224 289 -224 3 0 65 -38 138 -83 176 -111 322 -185 398 -202 8 -2
30 -8 48 -14 19 -6 73 -8 120 -5 151 9 166 7 239 -30 88 -44 459 -184 728
-275 104 -35 228 -67 300 -77 28 -3 59 -8 70 -11 11 -2 53 -6 93 -8 l72 -5 0
44 c0 37 -6 51 -32 78 -30 31 -46 37 -163 62 -171 37 -370 88 -475 122 -47 15
-89 28 -95 30 -5 1 -55 20 -110 42 -151 60 -336 152 -435 216 -147 95 -246
162 -248 168 -2 5 -8 8 -13 8 -31 0 -441 334 -585 478 -306 303 -507 596 -639
931 -64 161 -72 172 -122 167 -72 -8 -75 -11 -69 -81 8 -88 33 -149 177 -430
75 -144 227 -360 369 -520 56 -64 353 -356 405 -400 27 -22 81 -67 122 -101
40 -33 110 -84 155 -112 46 -28 101 -67 123 -86 l40 -36 -60 26 c-81 35 -259
127 -263 136 -2 5 -8 8 -13 8 -6 0 -58 32 -117 71 -332 222 -578 484 -870 924
-74 112 -173 317 -222 465 -24 69 -46 128 -50 133 -8 9 -57 15 -88 9z"/>
<path d="M1998 6343 c-30 -35 -30 -59 2 -112 16 -29 30 -54 30 -57 0 -3 20
-29 44 -57 24 -29 65 -83 90 -122 172 -262 258 -356 501 -543 291 -225 447
-319 685 -412 145 -57 363 -98 380 -71 12 20 10 87 -3 104 -7 9 -84 34 -197
62 -275 70 -428 132 -586 239 -112 75 -179 137 -339 311 -49 54 -119 128 -154
164 -35 36 -84 91 -110 121 -25 30 -60 70 -78 88 -18 18 -53 66 -79 105 -106
163 -121 183 -150 191 -13 4 -26 0 -36 -11z"/>
<path d="M1329 6336 c-53 -26 -40 -86 59 -286 139 -282 239 -417 507 -686 224
-225 349 -328 575 -478 192 -127 292 -186 440 -258 197 -97 260 -123 430 -181
201 -68 272 -85 422 -102 l57 -7 -3 57 c-5 77 -21 91 -142 121 -110 28 -258
71 -289 83 -11 5 -67 26 -125 46 -201 72 -428 189 -682 353 -98 63 -275 196
-314 236 -12 11 -50 46 -85 76 -105 89 -308 298 -391 401 -137 171 -256 371
-308 516 -12 34 -32 71 -44 83 -32 29 -78 41 -107 26z"/>
<path d="M1677 6297 c-15 -15 -18 -28 -13 -63 6 -50 11 -61 81 -183 164 -288
456 -616 716 -804 13 -9 52 -37 86 -62 145 -104 322 -210 488 -291 258 -125
641 -259 690 -241 11 5 15 21 15 65 0 68 -12 87 -60 96 -65 11 -138 35 -307
97 -133 49 -465 211 -471 230 -2 5 -8 9 -13 9 -12 0 -113 62 -117 72 -2 4 -8
8 -14 8 -5 0 -20 8 -33 18 -12 9 -33 24 -45 32 -19 13 -58 41 -105 77 -158
121 -440 396 -520 507 -11 16 -25 33 -31 40 -17 19 -94 134 -94 142 0 4 -6 15
-14 23 -7 9 -37 61 -66 116 -29 55 -60 108 -68 118 -20 23 -80 19 -105 -6z"/>
<path d="M6178 4585 c-2 -2 -34 -5 -73 -9 -38 -3 -81 -8 -95 -10 -39 -7 -86
-14 -215 -30 -176 -22 -199 -25 -318 -31 -114 -6 -156 -16 -158 -37 -8 -93 49
-144 150 -134 31 3 88 8 126 11 72 6 89 8 190 26 73 13 267 61 354 88 46 14
74 31 104 61 36 38 39 43 23 52 -16 9 -82 18 -88 13z"/>
<path d="M2553 4263 c-10 -4 -71 -178 -88 -251 -2 -9 -11 -44 -18 -77 -8 -33
-15 -69 -15 -80 1 -31 35 -62 134 -121 157 -92 225 -94 395 -9 122 62 160 91
194 150 32 55 68 153 62 169 -6 14 -80 43 -134 52 -34 6 -391 126 -448 150
-46 20 -65 24 -82 17z"/>
<path d="M3320 3653 c-30 -7 -64 -15 -74 -18 -11 -2 -71 -33 -135 -68 -160
-88 -221 -109 -320 -108 -95 0 -149 18 -326 106 -164 82 -173 85 -250 89 -104
5 -199 -15 -283 -61 -37 -20 -69 -39 -72 -43 -10 -14 -127 -69 -186 -86 -75
-22 -199 -22 -259 0 -11 5 -33 13 -50 19 -30 11 -87 42 -176 96 -87 54 -156
74 -254 74 -105 0 -146 -14 -293 -96 -53 -29 -118 -61 -144 -71 -54 -20 -57
-26 -54 -95 2 -61 20 -83 69 -83 51 0 72 9 169 69 219 135 309 141 472 28 260
-181 513 -184 792 -9 101 62 161 87 218 90 63 3 109 -14 221 -80 49 -30 104
-60 120 -66 17 -7 39 -16 50 -21 25 -10 85 -28 116 -35 58 -13 197 -10 259 6
67 17 184 65 210 85 40 32 161 95 206 108 90 26 157 7 318 -92 92 -57 145 -79
241 -100 90 -19 166 -20 246 -1 57 13 162 62 192 88 35 31 11 113 -38 132 -16
6 -42 1 -86 -15 -52 -19 -167 -42 -189 -38 -3 0 -28 4 -57 7 -89 10 -163 41
-345 144 -89 50 -214 69 -308 45z"/>
<path d="M6490 3653 c-69 -11 -160 -49 -274 -112 -99 -56 -160 -73 -261 -72
-125 1 -159 -21 -135 -84 25 -66 103 -104 202 -98 90 5 157 28 260 90 126 76
184 101 243 106 70 5 141 -16 230 -68 41 -25 103 -59 136 -75 168 -85 392 -85
557 -1 32 16 111 56 176 90 105 54 126 61 176 61 66 0 104 -14 204 -75 179
-108 281 -143 422 -143 144 0 251 35 418 138 164 100 269 98 435 -9 193 -123
279 -136 316 -46 27 63 2 105 -73 125 -26 7 -94 39 -152 71 -158 87 -208 103
-316 103 -106 -1 -103 0 -325 -109 -91 -45 -172 -83 -180 -84 -191 -26 -301 1
-499 123 -41 25 -81 46 -90 46 -9 0 -20 4 -26 10 -5 5 -44 13 -86 16 -119 10
-221 -16 -328 -84 -42 -27 -153 -82 -178 -87 -9 -3 -35 -9 -58 -14 -125 -31
-258 -9 -394 66 -203 111 -283 134 -400 116z"/>
<path d="M3336 3174 c-78 -14 -183 -58 -293 -124 -85 -51 -159 -73 -251 -75
-120 -4 -193 21 -348 116 -91 55 -179 82 -273 81 -42 -1 -83 -3 -91 -5 -8 -2
-31 -7 -50 -11 -44 -11 -111 -44 -197 -100 -91 -58 -151 -77 -256 -82 -120 -5
-203 15 -292 71 -157 100 -233 127 -348 127 -114 0 -189 -28 -357 -131 -41
-25 -88 -53 -104 -61 -35 -18 -45 -44 -35 -90 11 -47 42 -71 83 -65 35 7 161
68 221 109 99 68 188 89 273 65 26 -7 85 -36 132 -64 130 -78 197 -106 310
-129 126 -26 282 -1 392 62 26 15 75 43 110 64 167 96 277 94 437 -10 106 -69
278 -125 381 -124 56 1 152 13 190 24 38 11 182 78 190 88 3 3 28 20 57 37 99
61 213 78 303 47 24 -8 87 -41 140 -73 191 -117 328 -145 520 -108 48 10 137
47 196 84 109 67 159 93 199 104 41 12 131 13 175 3 52 -12 118 -16 123 -8 9
16 -21 85 -50 116 -48 51 -71 59 -178 58 -120 0 -188 -19 -302 -88 -43 -26
-91 -53 -108 -61 -164 -75 -336 -59 -490 45 -122 83 -170 102 -305 119 -14 1
-60 -3 -104 -11z"/>
<path d="M8975 3173 c-72 -15 -164 -55 -250 -108 -118 -74 -214 -103 -325 -99
-104 3 -152 22 -331 133 -109 67 -244 94 -358 72 -73 -14 -126 -37 -218 -93
-164 -100 -295 -126 -446 -89 -45 10 -165 65 -177 80 -12 15 -89 59 -140 80
-70 28 -205 39 -281 21 -30 -6 -94 -31 -144 -55 -92 -45 -244 -139 -246 -153
0 -4 -2 -17 -5 -29 -7 -38 25 -65 79 -65 57 0 101 14 175 56 32 17 71 37 87
45 17 7 39 18 50 24 11 6 53 12 93 13 86 4 113 -6 251 -83 231 -131 400 -157
596 -91 53 17 152 64 165 78 11 12 88 57 125 75 50 23 161 31 212 15 21 -7 67
-31 103 -55 160 -103 318 -156 454 -151 135 5 233 39 396 139 182 112 295 103
503 -40 152 -106 248 -109 264 -10 8 51 -14 79 -90 115 -36 16 -91 47 -123 68
-167 108 -275 136 -419 107z"/>
</g>
</svg>
